<?xml version="1.0" encoding="UTF-8" standalone="no"?>
<!-- Created with Inkscape (http://www.inkscape.org/) -->

<svg
   xmlns:dc="http://purl.org/dc/elements/1.1/"
   xmlns:cc="http://creativecommons.org/ns#"
   xmlns:rdf="http://www.w3.org/1999/02/22-rdf-syntax-ns#"
   xmlns:svg="http://www.w3.org/2000/svg"
   xmlns="http://www.w3.org/2000/svg"
   xmlns:sodipodi="http://sodipodi.sourceforge.net/DTD/sodipodi-0.dtd"
   xmlns:inkscape="http://www.inkscape.org/namespaces/inkscape"
   width="33.525177mm"
   height="33.526237mm"
   viewBox="0 0 33.525177 33.526237"
   version="1.1"
   id="svg1115"
   inkscape:version="0.92.5 (0.92.5+68)"
   sodipodi:docname="tooth8.svg">
  <defs
     id="defs1109" />
  <sodipodi:namedview
     id="base"
     pagecolor="#ffffff"
     bordercolor="#666666"
     borderopacity="1.0"
     inkscape:pageopacity="0.0"
     inkscape:pageshadow="2"
     inkscape:zoom="0.35"
     inkscape:cx="-1123.7882"
     inkscape:cy="-156.64333"
     inkscape:document-units="mm"
     inkscape:current-layer="g1199"
     showgrid="false"
     fit-margin-top="0"
     fit-margin-left="0"
     fit-margin-right="0"
     fit-margin-bottom="0"
     inkscape:window-width="1920"
     inkscape:window-height="1029"
     inkscape:window-x="0"
     inkscape:window-y="25"
     inkscape:window-maximized="1" />
  <metadata
     id="metadata1112">
    <rdf:RDF>
      <cc:Work
         rdf:about="">
        <dc:format>image/svg+xml</dc:format>
        <dc:type
           rdf:resource="http://purl.org/dc/dcmitype/StillImage" />
        <dc:title />
      </cc:Work>
    </rdf:RDF>
  </metadata>
  <g
     inkscape:label="Layer 1"
     inkscape:groupmode="layer"
     id="layer1"
     transform="translate(-49.005269,-73.861883)">
    <g
       transform="matrix(0.03527778,0,0,-0.03527778,-9.4392542,120.82153)"
       id="g1199">
      <path
         inkscape:connector-curvature="0"
         id="path192"
         style="fill:#f2ead9;fill-opacity:1;fill-rule:nonzero;stroke:none"
         d="m 2386.64,995.43 c -24.34,20.56 -48.31,41.6 -77.5,54.67 -3.4,-6.35 -8.29,-11.47 -12.19,-17.72 -1.35,-2.16 -4.55,-2.24 -5.88,0 -10.34,17.42 -30.89,65.62 -55.57,63.83 -16.32,-1.18 -26.37,-15.72 -44.12,-9.74 -14.66,4.92 -29.79,12.44 -44.02,21.42 -11.5,-4.11 -23.17,-7.15 -35.22,-7.83 -48.77,2.74 -91.1,43.87 -142.53,39.69 -59.94,-4.9 -100.71,-45.46 -121.74,-100.13 0,0 -47.08,-130.788 31.39,-245.882 0,0 -26.63,-254.347 78.46,-329.566 0,0 43.81,-19.84 48.51,31.43 0,0 -13.57,204.179 91.48,211.148 5.22,0.34 10.46,0.238 15.71,0.199 1.55,-0.008 3.09,-0.019 4.65,-0.019 2.82,0.011 5.66,0.019 8.47,-0.18 105.06,-6.969 91.49,-211.148 91.49,-211.148 4.69,-51.27 48.49,-31.43 48.49,-31.43 105.11,75.219 78.48,329.566 78.48,329.566 50.19,73.614 49,153.563 41.64,201.692" />
      <path
         inkscape:connector-curvature="0"
         id="path194"
         style="fill:#efc6cb;fill-opacity:1;fill-rule:nonzero;stroke:none"
         d="m 1967.02,1087.17 c 6.38,3.47 12.98,6.47 19.72,8.92 12.08,4.4 96.42,18.45 100.23,7.36 l -0.51,1.35 c -38.54,11.33 -74.63,38.38 -116.85,34.95 -59.94,-4.9 -100.71,-45.46 -121.74,-100.13 0,0 -47.08,-130.788 31.39,-245.882 0,0 -26.63,-254.347 78.46,-329.566 0,0 43.81,-19.84 48.51,31.43 0,0 -8.91,134.007 43.58,188.597 -1.92,-0.918 -3.82,-1.89 -5.66,-2.98 -30.07,-17.778 -34.17,-48.957 -41.9,-80.141 -4.38,-17.586 -19.46,-80.387 -48.6,-51.84 -17.02,16.672 -21.47,43.992 -24.89,66.543 -3.72,24.617 -6.81,49.649 -7.82,74.508 -2.1,51.641 5.82,106.043 45.8,142.231 -9.59,6.589 -20.68,10.89 -29.7,18.199 -10.12,8.222 -17.01,19.043 -21.85,31.09 -29.2,72.613 -23.44,164.161 51.83,205.361" />
      <path
         inkscape:connector-curvature="0"
         id="path196"
         style="fill:#efc6cb;fill-opacity:1;fill-rule:nonzero;stroke:none"
         d="m 2387.25,903.25 c -1.24,-3.012 -2.61,-6 -4.18,-8.91 -11.87,-22.031 -29.8,-39.301 -50.85,-52.59 -14.84,-9.379 -30.43,-17.289 -46.15,-25.02 -3.61,-1.781 -7.23,-3.55 -10.82,-5.339 -3.51,-1.743 0.09,-2.942 2.57,-6.692 4.74,-7.109 9.19,-14.418 12.76,-22.199 13.57,-29.648 18.61,-61.711 20.2,-94.09 1.7,-34.601 4.7,-71.219 -2.29,-105.41 -3.31,-16.191 -8.37,-31.668 -15.87,-46.398 -4.48,-8.821 -9.88,-19.243 -18.64,-24.622 -7.3,-4.492 -18.51,-7.679 -25.88,-1.218 -7.65,6.679 -8.28,16.738 -9.51,26.25 -2.87,22.269 -7.12,44.949 -12.18,66.828 -5.04,21.699 -11.58,45.551 -26.6,62.711 -7.39,8.488 -15.95,14.16 -25.28,17.558 52.4,-54.64 43.5,-188.507 43.5,-188.507 4.69,-51.27 48.49,-31.43 48.49,-31.43 105.11,75.219 78.48,329.566 78.48,329.566 24.87,36.473 37.11,74.543 42.25,109.512" />
      <path
         inkscape:connector-curvature="0"
         id="path198"
         style="fill:#811051;fill-opacity:1;fill-rule:nonzero;stroke:none"
         d="m 2386.64,995.43 3.23,3.82 c -24.3,20.5 -48.6,41.92 -78.69,55.42 -2.4,1.07 -5.22,0.11 -6.46,-2.21 -2.93,-5.58 -7.73,-10.64 -12.01,-17.43 l 1.26,-0.77 v 1.47 l -1.25,-0.69 1.25,-0.78 v 1.47 -1.63 l 1.4,0.83 -1.4,0.8 v -1.63 l 1.4,0.83 c -4.86,8.17 -12.51,24.37 -22.04,38.59 -4.8,7.13 -10.08,13.83 -16.04,18.96 -5.92,5.08 -12.75,8.76 -20.46,8.78 l -1.73,-0.07 0.04,0.01 c -7.98,-0.6 -14.31,-3.8 -19.88,-6.43 -5.6,-2.69 -10.37,-4.75 -15.45,-4.74 -2.1,0.01 -4.32,0.33 -6.84,1.18 -14.19,4.76 -29,12.11 -42.94,20.91 -1.3,0.82 -2.91,0.99 -4.35,0.48 -11.23,-4.02 -22.43,-6.91 -33.82,-7.55 l 0.28,-4.99 0.28,4.99 c -21.93,1.2 -43.17,10.83 -65.19,20.56 -22,9.66 -44.83,19.42 -70.24,19.44 -2.57,0 -5.18,-0.1 -7.8,-0.31 -30.99,-2.52 -57.27,-14.37 -78.31,-32.61 -21.06,-18.23 -36.92,-42.76 -47.68,-70.72 l -0.03,-0.1 c -0.12,-0.35 -14.3,-39.74 -14.31,-94.662 -0.01,-45.726 9.89,-102.378 46.26,-155.726 l 4.14,2.816 -4.98,0.524 c -0.01,-0.121 -3.04,-29.051 -3.04,-70.34 0.01,-40.75 2.93,-93.524 14.72,-142.703 11.82,-49.117 32.41,-94.949 68.85,-121.117 l 0.85,-0.493 c 0.36,-0.129 9.13,-4.179 20.19,-4.211 7.1,-0.019 15.46,1.813 22.31,8.071 6.85,6.25 11.67,16.453 13.05,31.679 l 0.01,0.793 c 0,0 -0.14,2.059 -0.28,5.868 -0.14,3.82 -0.29,9.351 -0.29,16.152 -0.01,26.309 2.17,71.781 14.49,110.758 6.14,19.492 14.82,37.293 26.67,50.312 11.89,13.02 26.68,21.391 46.23,22.731 2.86,0.187 5.78,0.238 8.75,0.238 2.17,0 4.36,-0.031 6.58,-0.051 1.57,-0.008 3.12,-0.019 4.7,-0.019 l 1.8,0.011 c 2.18,0 4.29,-0.031 6.3,-0.179 h 0.04 c 19.55,-1.34 34.34,-9.711 46.23,-22.731 17.8,-19.511 28.34,-49.883 34.13,-80.359 5.82,-30.481 7.03,-60.973 7.03,-80.711 0,-6.813 -0.15,-12.332 -0.29,-16.152 -0.14,-3.821 -0.27,-5.868 -0.27,-5.879 l 0.01,-0.782 c 1.37,-15.226 6.18,-25.429 13.04,-31.679 6.85,-6.258 15.2,-8.09 22.31,-8.071 11.05,0.032 19.83,4.082 20.18,4.211 l 0.85,0.493 c 36.45,26.168 57.04,72 68.86,121.128 11.79,49.168 14.71,101.95 14.72,142.692 0,41.297 -3.03,70.219 -3.04,70.34 l -4.97,-0.524 4.13,-2.816 c 36.37,53.34 46.26,109.937 46.25,155.648 0,18.629 -1.64,35.481 -3.8,49.61 -0.18,1.199 -0.78,2.281 -1.71,3.07 l -3.23,-3.82 -4.94,-0.758 c 2.09,-13.711 3.68,-30.063 3.68,-48.102 -0.01,-44.32 -9.56,-98.738 -44.51,-150.019 -0.67,-0.969 -0.97,-2.16 -0.84,-3.332 0,-0.008 0.18,-1.739 0.46,-5.039 0.84,-9.91 2.52,-33.649 2.52,-64.258 0.01,-40.25 -2.93,-92.391 -14.45,-140.363 -11.48,-48.02 -31.63,-91.571 -64.95,-115.329 l 2.91,-4.058 -2.06,4.547 -0.24,-0.098 c -1.38,-0.601 -8.38,-3.25 -15.82,-3.23 -5.55,0.019 -11.05,1.347 -15.57,5.461 -4.5,4.117 -8.56,11.527 -9.82,25.207 l -4.98,-0.457 4.99,-0.332 c 0,0.089 0.57,8.812 0.57,22.691 -0.01,26.867 -2.11,73.031 -14.95,113.769 -6.44,20.36 -15.56,39.442 -28.8,54.032 -13.19,14.578 -30.78,24.539 -52.97,25.976 l 0.04,-0.008 c -2.43,0.18 -4.78,0.211 -7.04,0.211 l -1.83,-0.011 c -1.51,0 -3.04,0.011 -4.59,0.019 -2.19,0.02 -4.42,0.051 -6.66,0.051 -3.09,0 -6.22,-0.059 -9.4,-0.262 -22.2,-1.437 -39.79,-11.398 -52.99,-25.976 -19.83,-21.91 -30.51,-53.813 -36.54,-85.223 -6,-31.418 -7.2,-62.43 -7.21,-82.578 0,-13.891 0.59,-22.602 0.59,-22.691 l 4.99,0.332 -4.98,0.457 c -1.27,-13.668 -5.32,-21.079 -9.83,-25.207 -4.52,-4.114 -10.03,-5.442 -15.57,-5.461 -4.26,0 -8.37,0.839 -11.37,1.699 -1.49,0.43 -2.71,0.851 -3.53,1.16 l -0.92,0.371 -0.24,0.098 -2.07,-4.547 2.91,4.058 c -33.31,23.758 -53.46,67.309 -64.94,115.329 -11.52,47.961 -14.45,100.101 -14.45,140.363 0,20.398 0.75,37.758 1.5,50 0.37,6.117 0.75,10.957 1.03,14.258 0.28,3.3 0.46,5.031 0.46,5.039 0.12,1.172 -0.18,2.363 -0.84,3.332 -34.97,51.289 -44.53,105.758 -44.53,150.097 0,26.602 3.45,49.5 6.89,65.722 1.73,8.1 3.45,14.54 4.73,18.92 0.64,2.19 1.17,3.87 1.54,4.99 0.37,1.12 0.56,1.64 0.55,1.64 l -4.7,1.7 4.67,-1.8 c 10.27,26.72 25.31,49.81 44.88,66.75 19.59,16.94 43.66,27.82 72.59,30.2 2.34,0.2 4.66,0.28 6.98,0.28 22.74,0.03 44.28,-8.91 66.21,-18.59 21.91,-9.62 44.17,-19.98 68.66,-21.4 h 0.56 c 12.71,0.73 24.85,3.91 36.63,8.12 l -1.69,4.71 -2.67,-4.23 c 14.52,-9.15 29.97,-16.85 45.1,-21.93 3.48,-1.17 6.84,-1.7 10.02,-1.7 7.82,0.02 14.13,3.05 19.75,5.71 5.66,2.71 10.72,5.09 16.3,5.48 l 0.04,0.01 0.93,0.03 c 4.33,0.02 9.04,-2.15 13.95,-6.37 7.35,-6.27 14.57,-16.78 20.7,-27.3 6.17,-10.55 11.3,-21.03 15.29,-27.76 1.57,-2.7 4.5,-4.13 7.2,-4.1 2.74,-0.01 5.57,1.38 7.21,3.99 3.52,5.72 8.51,10.9 12.36,18.03 l -4.4,2.35 -2.05,-4.56 c 28.29,-12.65 51.94,-33.31 76.32,-53.931 l 3.23,3.821 -4.94,-0.758 4.94,0.758" />
      <path
         inkscape:connector-curvature="0"
         id="path200"
         style="fill:#811051;fill-opacity:1;fill-rule:nonzero;stroke:none"
         d="m 2282.64,1165.04 c 7.44,10.18 18.75,28.81 29.94,47.47 11.16,18.62 22.16,37.24 28.45,46.68 1.53,2.29 0.91,5.4 -1.38,6.93 -2.3,1.53 -5.4,0.91 -6.93,-1.39 -6.61,-9.91 -17.56,-28.46 -28.72,-47.08 -11.13,-18.57 -22.5,-37.25 -29.43,-46.7 -1.64,-2.23 -1.15,-5.36 1.08,-6.99 2.23,-1.63 5.36,-1.15 6.99,1.08" />
      <path
         inkscape:connector-curvature="0"
         id="path202"
         style="fill:#811051;fill-opacity:1;fill-rule:nonzero;stroke:none"
         d="m 2241.43,1170.62 c 0,24.06 -1.07,69.88 -2.37,116.27 -0.07,2.76 -2.37,4.93 -5.13,4.85 -2.77,-0.07 -4.94,-2.37 -4.86,-5.14 1.29,-46.33 2.37,-92.17 2.37,-115.98 0,-2.76 2.23,-5 5,-5 2.76,0 5,2.24 5,5" />
      <path
         inkscape:connector-curvature="0"
         id="path204"
         style="fill:#811051;fill-opacity:1;fill-rule:nonzero;stroke:none"
         d="m 2200.89,1162.07 c -30.83,55.52 -40.07,67.35 -61.34,110.44 -1.22,2.48 -4.22,3.5 -6.7,2.27 -2.47,-1.22 -3.49,-4.22 -2.26,-6.69 21.53,-43.63 30.93,-55.72 61.56,-110.87 1.34,-2.42 4.38,-3.29 6.8,-1.95 2.41,1.34 3.28,4.39 1.95,6.8" />
    </g>
  </g>
</svg>
