<?xml version="1.0" encoding="UTF-8"?>
<svg version="1.1" viewBox="0 0 2117 1577" xmlns="http://www.w3.org/2000/svg" xmlns:cc="http://creativecommons.org/ns#" xmlns:dc="http://purl.org/dc/elements/1.1/" xmlns:rdf="http://www.w3.org/1999/02/22-rdf-syntax-ns#" xmlns:xlink="http://www.w3.org/1999/xlink">
<metadata>
<rdf:RDF>
<cc:Work rdf:about="">
<dc:format>image/svg+xml</dc:format>
<dc:type rdf:resource="http://purl.org/dc/dcmitype/StillImage"/>
<dc:title/>
</cc:Work>
</rdf:RDF>
</metadata>
<defs>
<clipPath id="h">
<use width="100%" height="100%" xlink:href="#b"/>
</clipPath>
<clipPath id="g">
<path d="m834.7 1696.9c-143.19 37.547-285.61 67.655-216.91 301.42 68.701 233.76 122.74 385.5 142.2 434.04 19.454 48.538 46.57 161.75 228.96 188.08 182.39 26.331 1687.1 214.61 1687.1 214.61l40.972-1577s-1616.5 369.15-1882.3 438.86z" opacity="0"/>
</clipPath>
<clipPath id="f">
<path d="m834.7 1696.9c-143.19 37.547-285.61 67.655-216.91 301.42 68.701 233.76 122.74 385.5 142.2 434.04 19.454 48.538 46.57 161.75 228.96 188.08 182.39 26.331 1687.1 214.61 1687.1 214.61l40.972-1577s-1616.5 369.15-1882.3 438.86z" opacity="0"/>
</clipPath>
<clipPath id="e">
<path d="m834.7 1696.9c-143.19 37.547-285.61 67.655-216.91 301.42 68.701 233.76 122.74 385.5 142.2 434.04 19.454 48.538 46.57 161.75 228.96 188.08 182.39 26.331 1687.1 214.61 1687.1 214.61l40.972-1577s-1616.5 369.15-1882.3 438.86z" opacity="0"/>
</clipPath>
<clipPath id="d">
<path d="m834.7 1696.9c-143.19 37.547-285.61 67.655-216.91 301.42 68.701 233.76 122.74 385.5 142.2 434.04 19.454 48.538 46.57 161.75 228.96 188.08 182.39 26.331 1687.1 214.61 1687.1 214.61l40.972-1577s-1616.5 369.15-1882.3 438.86z" opacity="0"/>
</clipPath>
<clipPath id="c">
<path d="m834.7 1696.9c-143.19 37.547-285.61 67.655-216.91 301.42 68.701 233.76 122.74 385.5 142.2 434.04 19.454 48.538 46.57 161.75 228.96 188.08 182.39 26.331 1687.1 214.61 1687.1 214.61l40.972-1577s-1616.5 369.15-1882.3 438.86z" opacity="0"/>
</clipPath>
<linearGradient id="a" x1="1565.9" x2="517.84" y1="1457.6" y2="2954.3" gradientTransform="scale(1.1586 .86309)" gradientUnits="userSpaceOnUse">
<stop stop-color="#7cd1f5" offset="0"/>
<stop stop-color="#1c80df" offset="1"/>
</linearGradient>
</defs>
<g transform="translate(-599.98 -1258)" clip-path="url(#h)">
<g id="b">
<path d="m834.7 1696.9c-143.19 37.547-285.61 67.655-216.91 301.42 68.701 233.76 122.74 385.5 142.2 434.04 19.454 48.538 46.57 161.75 228.96 188.08 182.39 26.331 1687.1 214.61 1687.1 214.61l40.972-1577s-1616.5 369.15-1882.3 438.86z" clip-path="url(#c)" fill="url(#a)" fill-rule="evenodd"/>
<path d="m1209.4 717.44-1131.2 1131.2c-104.26 104.26-104.26 272.8 0 377.06l377.08 377.06c104.26 104.26 272.82 104.26 377.08 0l1131.2-1131.2c104.26-104.26 104.26-272.81 0-377.06l-377.08-377.06c-104.26-104.26-272.82-104.26-377.08 0z" clip-path="url(#d)" fill="#258fe0" fill-opacity=".4" fill-rule="evenodd"/>
<path d="m2133 2365.5-1131.2 1131.2c-104.26 104.26-104.26 272.81 0 377.06l377.08 377.06c104.26 104.26 272.82 104.26 377.08 0l1131.2-1131.2c104.26-104.26 104.26-272.8 0-377.06l-377.08-377.06c-104.26-104.26-272.82-104.26-377.08 0z" clip-path="url(#e)" fill="#258fe0" fill-opacity=".4" fill-rule="evenodd"/>
<path d="m2104.6 3339.4-1131.2-1131.2c-104.26-104.26-272.82-104.26-377.08 0l-377.08 377.06c-104.26 104.26-104.26 272.81 0 377.06l1131.2 1131.2c104.26 104.26 272.82 104.26 377.08 0l377.08-377.06c104.26-104.26 104.26-272.81 0-377.06z" clip-path="url(#f)" fill="#258fe0" fill-opacity=".4" fill-rule="evenodd"/>
<path d="m2443.7 78.173-1131.2 1131.2c-104.26 104.26-104.26 272.81 0 377.06l377.08 377.06c104.26 104.26 272.82 104.26 377.08 0l1131.2-1131.2c104.26-104.26 104.26-272.81 0-377.06l-377.08-377.06c-104.26-104.26-272.82-104.26-377.08 0z" clip-path="url(#g)" fill="#258fe0" fill-opacity=".4" fill-rule="evenodd"/>
</g>
</g>
</svg>

