<?xml version="1.0" encoding="UTF-8" standalone="no"?>
<!-- Created with Inkscape (http://www.inkscape.org/) -->

<svg
   xmlns:dc="http://purl.org/dc/elements/1.1/"
   xmlns:cc="http://creativecommons.org/ns#"
   xmlns:rdf="http://www.w3.org/1999/02/22-rdf-syntax-ns#"
   xmlns:svg="http://www.w3.org/2000/svg"
   xmlns="http://www.w3.org/2000/svg"
   xmlns:sodipodi="http://sodipodi.sourceforge.net/DTD/sodipodi-0.dtd"
   xmlns:inkscape="http://www.inkscape.org/namespaces/inkscape"
   width="33.525665mm"
   height="33.526581mm"
   viewBox="0 0 33.525665 33.526581"
   version="1.1"
   id="svg1123"
   inkscape:version="0.92.5 (0.92.5+68)"
   sodipodi:docname="logo.svg">
  <defs
     id="defs1117">
    <mask
       maskUnits="userSpaceOnUse"
       id="mask1755">
      <path
         d="m 91.170265,141.81094 c -2.64817,-3.88443 -1.0589,-8.29839 -1.0589,-8.29839 0.70986,-1.84538 2.08541,-3.21451 4.10824,-3.37961 1.7363,-0.14146 3.16466,1.24707 4.81044,1.3395 1.645105,-0.0924 3.073715,-1.48096 4.810185,-1.3395 2.02266,0.1651 3.39838,1.53423 4.1081,3.37961 0,0 1.58927,4.41396 -1.05907,8.29839 0,0 -6.909045,3.09351 -15.718995,0"
         style="fill:#f2ead9;fill-opacity:1;fill-rule:nonzero;stroke:none;stroke-width:0.03527778"
         id="path1757"
         inkscape:connector-curvature="0"
         clip-path="none" />
    </mask>
  </defs>
  <sodipodi:namedview
     id="base"
     pagecolor="#ffffff"
     bordercolor="#666666"
     borderopacity="1.0"
     inkscape:pageopacity="0.0"
     inkscape:pageshadow="2"
     inkscape:zoom="3.959798"
     inkscape:cx="75.231443"
     inkscape:cy="73.661906"
     inkscape:document-units="mm"
     inkscape:current-layer="layer1"
     showgrid="false"
     fit-margin-top="0"
     fit-margin-left="0"
     fit-margin-right="0"
     fit-margin-bottom="0"
     inkscape:window-width="1920"
     inkscape:window-height="1029"
     inkscape:window-x="0"
     inkscape:window-y="25"
     inkscape:window-maximized="1" />
  <metadata
     id="metadata1120">
    <rdf:RDF>
      <cc:Work
         rdf:about="">
        <dc:format>image/svg+xml</dc:format>
        <dc:type
           rdf:resource="http://purl.org/dc/dcmitype/StillImage" />
        <dc:title></dc:title>
      </cc:Work>
    </rdf:RDF>
  </metadata>
  <g
     inkscape:label="Layer 1"
     inkscape:groupmode="layer"
     id="layer1"
     transform="translate(-82.266685,-126.77838)">
    <path
       d="m 99.029335,126.77908 c -9.25738,0 -16.76216,7.50464 -16.76216,16.76294 0,4.62845 1.87551,8.81909 4.90954,11.85298 l 23.706375,-23.70596 c -3.03318,-3.03389 -7.22394,-4.90996 -11.853755,-4.90996"
       style="fill:#20966e;fill-opacity:1;fill-rule:nonzero;stroke:none;stroke-width:0.03527778"
       id="path24"
       inkscape:connector-curvature="0" />
    <path
       d="m 115.79235,143.54202 c 0,9.25724 -7.50429,16.76294 -16.762025,16.76294 -9.25699,0 -16.76315,-7.5057 -16.76315,-16.76294 0,-9.2583 7.50616,-16.76294 16.76315,-16.76294 9.257735,0 16.762025,7.50464 16.762025,16.76294"
       style="fill:#50b4f2;fill-opacity:1;fill-rule:nonzero;stroke:none;stroke-width:0.03527778"
       id="path28"
       inkscape:connector-curvature="0" />
    <path
       d="m 82.267175,143.54132 v 0 c 0,-9.2583 7.50478,-16.76294 16.76216,-16.76294 4.629815,0 8.820575,1.87677 11.853755,4.90996 v 0 c -3.03354,-3.03319 -7.22394,-4.90926 -11.852765,-4.90926 v 0 c -8.5e-4,0 -7.1e-4,0 -9.8e-4,0 -9.25739,0 -16.76217,7.50464 -16.76217,16.76294"
       style="fill:#daacb3;fill-opacity:1;fill-rule:nonzero;stroke:none;stroke-width:0.03527778"
       id="path64"
       inkscape:connector-curvature="0" />
    <path
       d="m 87.176715,155.395 c -0.12732,-0.12735 -0.25273,-0.25682 -0.37592,-0.38841 -2.37935,-2.53647 -3.97757,-5.81342 -4.41347,-9.44774 0.45847,3.8227 2.20335,7.24959 4.78967,9.8358 l -2.9e-4,2.7e-4 m -4.78952,-9.83607 c -2.4e-4,-0.002 -3.8e-4,-0.005 -8.1e-4,-0.007 2.8e-4,0.002 6.7e-4,0.005 8.1e-4,0.007 m -0.002,-0.0138 -1.4e-4,-3.4e-4 c 1.4e-4,7.1e-4 0,0 1.4e-4,3.4e-4 m -0.1185,-2.00377 v 0 c 0,-9.2576 7.50478,-16.76224 16.76216,-16.76224 2.9e-4,0 1.4e-4,0 4.3e-4,0 -9.25643,0 -16.76259,7.50464 -16.76259,16.76294"
       style="fill:#1d6f51;fill-opacity:1;fill-rule:nonzero;stroke:none;stroke-width:0.03527778"
       id="path66"
       inkscape:connector-curvature="0" />
    <path
       d="m 87.177345,155.3945 c -2.58632,-2.58621 -4.3312,-6.0131 -4.78967,-9.8358 h -1.4e-4 c -1.4e-4,-0.002 -5.3e-4,-0.005 -8.1e-4,-0.007 -2.8e-4,-0.002 -4.2e-4,-0.004 -7e-4,-0.007 -1.4e-4,-3.4e-4 0,3.5e-4 -1.4e-4,-3.4e-4 -0.0781,-0.65684 -0.11836,-1.32535 -0.11836,-2.00339 0,-9.2576 7.50616,-16.76224 16.76315,-16.76224 v 0 c 4.628825,0 8.819225,1.87607 11.852415,4.90961 l -9.9036,9.90353 h -7.768835 v 3.83081 h 3.93816 -0.98488 v 0.98496 l -8.98687,8.98701"
       style="fill:#379ad9;fill-opacity:1;fill-rule:nonzero;stroke:none;stroke-width:0.03527778"
       id="path68"
       inkscape:connector-curvature="0" />
    <path
       d="m 93.210305,145.42303 h 11.638905 v -3.83081 H 93.210305 Z"
       style="fill:#c6dde7;fill-opacity:1;fill-rule:nonzero;stroke:none;stroke-width:0.03527778"
       id="path116"
       inkscape:connector-curvature="0" />
    <path
       d="m 101.92462,149.43235 -1.40974,-0.56797 c -0.11783,-0.048 -0.21745,-0.24271 -0.24088,-0.34396 -0.0278,-0.12312 -0.0237,-0.2727 0.0405,-0.38735 0.0808,-0.14605 0.26487,-0.21837 0.43879,-0.27058 0.27753,-0.0829 0.58427,-0.12065 0.80599,-0.29351 0.12541,-0.0981 0.25273,-0.23248 0.31944,-0.36407 0.0725,-0.14464 0.0178,-0.27622 0.0178,-0.41874 v -1.36314 h -2.796995 -0.13906 -2.79686 v 1.36314 c 0,0.14252 -0.0554,0.2741 0.0176,0.41874 0.0661,0.13159 0.19346,0.266 0.31887,0.36407 0.22187,0.17286 0.52864,0.21061 0.80631,0.29351 0.17389,0.0522 0.35786,0.12453 0.43889,0.27058 0.0641,0.11465 0.0684,0.26423 0.0404,0.38735 -0.0233,0.10125 -0.12308,0.29598 -0.24091,0.34396 l -1.40959,0.56797 c -0.29295,0.11783 -0.36862,0.46038 -0.27228,0.68827 0.0478,0.11254 0.14235,0.25435 0.25411,0.33373 0.13324,0.0945 0.35842,0.13406 0.52049,0.18662 0.17515,0.0568 0.34713,0.12065 0.52144,0.17921 0.13271,0.0441 0.26335,0.0935 0.39702,0.13582 0.20531,0.0642 0.31474,0.1083 0.4167,0.27905 0.10696,0.1778 0.14125,0.38452 0.12142,0.58102 -0.0291,0.28999 -0.2504,0.51329 -0.54571,0.66569 -0.34657,0.17851 -0.78962,0.34043 -1.07033,0.58844 -0.23068,0.2032 -0.27435,0.56479 -0.0958,0.79798 0.24462,0.32032 0.88569,0.33902 1.24866,0.53693 0.19911,0.10865 0.36103,0.3048 0.39162,0.50165 0.0252,0.15663 -0.004,0.2928 -0.0846,0.43638 -0.133,0.23707 -0.45036,0.31256 -0.71769,0.41064 -0.38213,0.1404 -0.82818,0.19297 -0.86925,0.59937 -0.0313,0.30656 0.24638,0.53904 0.51234,0.71931 0.24666,0.16651 0.50532,0.32068 0.77446,0.4639 0.25936,0.13864 0.51636,0.28046 0.77833,0.41487 0.15681,0.0808 0.34946,0.19015 0.5443,0.22895 v 0.0166 l 0.0696,-0.008 0.0695,0.008 v -0.0166 c 0.19442,-0.0388 0.38721,-0.14816 0.54405,-0.22895 0.26208,-0.13441 0.518825,-0.27623 0.778575,-0.41487 0.26857,-0.14322 0.5278,-0.29739 0.77446,-0.4639 0.26596,-0.18027 0.5432,-0.41275 0.51209,-0.71931 -0.0411,-0.4064 -0.48743,-0.45897 -0.86942,-0.59937 -0.26705,-0.0981 -0.58427,-0.17357 -0.71755,-0.41064 -0.08,-0.14358 -0.10968,-0.27975 -0.0847,-0.43638 0.0306,-0.19685 0.19251,-0.393 0.39204,-0.50165 0.36269,-0.19791 1.0039,-0.21661 1.24866,-0.53693 0.17843,-0.23319 0.13434,-0.59478 -0.0959,-0.79798 -0.28113,-0.24801 -0.72376,-0.40993 -1.07047,-0.58844 -0.29517,-0.1524 -0.516745,-0.3757 -0.545565,-0.66569 -0.0197,-0.1965 0.0141,-0.40322 0.121275,-0.58102 0.1021,-0.17075 0.21167,-0.21484 0.4167,-0.27905 0.13395,-0.0423 0.26434,-0.0917 0.39688,-0.13582 0.17448,-0.0586 0.34632,-0.12241 0.52162,-0.17921 0.16189,-0.0526 0.38692,-0.0921 0.52034,-0.18662 0.11187,-0.0794 0.20588,-0.22119 0.25425,-0.33373 0.0963,-0.22789 0.0209,-0.57044 -0.27217,-0.68827"
       style="fill:#96b7c5;fill-opacity:1;fill-rule:nonzero;stroke:none;stroke-width:0.03527778"
       id="path118"
       inkscape:connector-curvature="0" />
    <path
       d="m 99.099505,158.19676 -0.0695,-0.008 -0.0696,0.008 v -0.0166 c -0.19484,-0.0388 -0.38749,-0.14816 -0.5443,-0.22895 -0.26197,-0.13441 -0.51897,-0.27623 -0.77833,-0.41487 -0.26914,-0.14323 -0.52779,-0.29739 -0.77446,-0.4639 -0.25244,-0.1711 -0.51551,-0.38947 -0.5147,-0.67345 0,-0.0152 8.5e-4,-0.0303 0.002,-0.0459 0.0411,-0.4064 0.48712,-0.45896 0.86925,-0.59937 0.26733,-0.0981 0.58469,-0.17357 0.71769,-0.41063 0.0617,-0.10972 0.0933,-0.21555 0.0934,-0.32915 0,-0.0349 -0.003,-0.0706 -0.009,-0.10724 -0.0306,-0.19685 -0.19251,-0.393 -0.39162,-0.50165 -0.36298,-0.19791 -1.00404,-0.21661 -1.24866,-0.53693 -0.074,-0.0967 -0.10982,-0.21519 -0.1101,-0.33549 -2.9e-4,-0.17004 0.0707,-0.34325 0.20588,-0.46249 0.28071,-0.248 0.72376,-0.40993 1.07033,-0.58843 0.29531,-0.1524 0.51664,-0.37571 0.54571,-0.6657 0.004,-0.0353 0.005,-0.0709 0.005,-0.10654 -2.9e-4,-0.16333 -0.039,-0.32878 -0.12679,-0.47448 -0.10195,-0.17075 -0.21138,-0.21484 -0.4167,-0.27905 -0.13367,-0.0423 -0.2643,-0.0917 -0.39702,-0.13582 -0.1743,-0.0586 -0.34628,-0.12241 -0.52144,-0.17921 -0.16206,-0.0526 -0.38724,-0.0921 -0.52048,-0.18662 -0.11176,-0.0794 -0.20631,-0.22119 -0.25411,-0.33373 -0.0259,-0.0614 -0.0394,-0.13123 -0.0396,-0.20249 -1.4e-4,-0.19368 0.0978,-0.3997 0.31182,-0.48578 l 1.40959,-0.56797 c 0.11783,-0.048 0.2176,-0.24271 0.24092,-0.34396 0.0104,-0.0462 0.0164,-0.0963 0.0164,-0.1464 0,-0.084 -0.0166,-0.16933 -0.0568,-0.24095 -0.081,-0.14605 -0.26501,-0.21837 -0.4389,-0.27058 -0.27767,-0.0829 -0.58444,-0.12065 -0.8063,-0.29351 -0.12542,-0.0981 -0.25273,-0.23248 -0.31888,-0.36406 -0.0291,-0.0575 -0.0378,-0.11325 -0.0378,-0.16828 1.4e-4,-0.0829 0.0201,-0.16475 0.0201,-0.25047 v -1.36314 h 2.94129 v 12.75505 l -0.005,0.002 v 0 0.0166"
       style="fill:#718894;fill-opacity:1;fill-rule:nonzero;stroke:none;stroke-width:0.03527778"
       id="path120"
       inkscape:connector-curvature="0" />
    <path
       d="m 101.92462,149.43235 0.0659,-0.16333 -1.40974,-0.56833 -0.0245,-0.0201 c -0.0465,-0.0423 -0.1046,-0.16298 -0.11038,-0.20002 -0.007,-0.0328 -0.012,-0.0699 -0.012,-0.10619 -1.4e-4,-0.0614 0.013,-0.11783 0.0343,-0.15487 l 6.6e-4,-0.001 c 0.0181,-0.0335 0.055,-0.0684 0.11508,-0.10125 0.0595,-0.0332 0.13807,-0.0614 0.21978,-0.0857 0.25661,-0.0804 0.5861,-0.11183 0.86405,-0.32314 0.14112,-0.11183 0.2818,-0.25612 0.3682,-0.42369 l 4.2e-4,-7.1e-4 c 0.0435,-0.0861 0.0565,-0.17427 0.0561,-0.2473 -0.001,-0.11112 -0.021,-0.19226 -0.0197,-0.25012 v -1.36348 c 0,-0.0469 -0.0182,-0.0914 -0.0515,-0.12453 -0.0333,-0.0335 -0.0776,-0.0519 -0.1247,-0.0519 h -2.796855 -0.13935 -2.79657 c -0.0466,0 -0.0919,0.0187 -0.12485,0.0519 -0.0328,0.0328 -0.0515,0.0783 -0.0515,0.12453 v 1.36348 c 0.001,0.0575 -0.0189,0.13864 -0.0203,0.25083 -5.6e-4,0.0727 0.0125,0.16122 0.0568,0.24729 0.0857,0.16757 0.22669,0.31186 0.36738,0.42334 0.27838,0.21166 0.60801,0.24306 0.86459,0.32349 0.0817,0.0243 0.16041,0.0526 0.21978,0.0857 0.0602,0.0328 0.0972,0.0677 0.11536,0.10125 0.0215,0.0377 0.0347,0.0945 0.0346,0.15558 0,0.036 -0.005,0.0737 -0.0122,0.1083 l 2.9e-4,-0.001 c -0.004,0.0229 -0.0299,0.0878 -0.062,0.13723 l -0.0482,0.0624 -0.0249,0.0205 -1.40921,0.56797 c -0.14358,0.0572 -0.25326,0.1591 -0.32191,0.27552 -0.0689,0.11642 -0.10029,0.24624 -0.10043,0.37289 0,0.0935 0.0172,0.18626 0.0537,0.27199 0.0609,0.13899 0.16178,0.29774 0.31432,0.40887 0.0956,0.067 0.2001,0.10301 0.30043,0.13405 0.0999,0.03 0.19678,0.0533 0.26761,0.0766 0.17075,0.0554 0.34202,0.11889 0.51979,0.17851 0.12887,0.0427 0.26031,0.0924 0.40005,0.13652 0.10114,0.0318 0.16661,0.0561 0.20796,0.0822 0.0413,0.0261 0.0691,0.0519 0.11049,0.11924 0.0695,0.11536 0.10156,0.24906 0.1017,0.38524 l -0.005,0.0896 1.5e-4,-0.002 c -0.0108,0.10442 -0.0541,0.1972 -0.13106,0.28681 -0.0766,0.0892 -0.1874,0.17145 -0.31997,0.23988 -0.33196,0.17322 -0.78521,0.33267 -1.10628,0.61278 -0.17543,0.15522 -0.26529,0.37535 -0.26557,0.59372 0,0.15487 0.046,0.31292 0.14665,0.4438 0.17099,0.21731 0.42746,0.30233 0.67014,0.37641 0.24405,0.0706 0.48835,0.127 0.63387,0.20814 0.15861,0.0833 0.28734,0.25259 0.30208,0.37394 l 0.007,0.079 c -5.3e-4,0.0808 -0.0204,0.1524 -0.0711,0.24448 -0.0393,0.0713 -0.1155,0.13017 -0.2293,0.18344 -0.11247,0.0533 -0.25411,0.096 -0.39508,0.14747 -0.17737,0.066 -0.38791,0.11324 -0.58003,0.20743 -0.0958,0.0476 -0.1892,0.10901 -0.26445,0.19897 -0.0755,0.0896 -0.12664,0.20778 -0.13931,0.34042 l -0.003,0.0653 c 1.4e-4,0.19862 0.0929,0.36478 0.20645,0.49425 0.11451,0.13052 0.25453,0.23424 0.38583,0.32385 0.25248,0.17039 0.5165,0.32773 0.79047,0.47342 0.25781,0.13759 0.51565,0.28011 0.78063,0.41628 0.15285,0.0776 0.35637,0.1972 0.59023,0.24518 l 0.0346,-0.17321 h -0.17639 v 0.0166 c 0,0.0505 0.0219,0.0988 0.0596,0.13229 0.0379,0.0332 0.0885,0.049 0.1385,0.0427 l 0.0478,-0.006 0.0481,0.006 c 0.0499,0.006 0.10075,-0.01 0.1385,-0.0427 0.0378,-0.0335 0.0596,-0.0818 0.0596,-0.13229 v -0.0166 h -0.17625 l 0.0346,0.17321 c 0.23329,-0.048 0.43699,-0.16757 0.59023,-0.24553 0.26498,-0.13582 0.522395,-0.27834 0.780625,-0.41593 0.2733,-0.14569 0.53788,-0.30268 0.79019,-0.47342 0.13158,-0.0896 0.27146,-0.19333 0.38583,-0.32421 0.11342,-0.12911 0.20616,-0.29563 0.20616,-0.49424 l -0.003,-0.0624 -2.9e-4,-0.002 c -0.0127,-0.13299 -0.0641,-0.25117 -0.13945,-0.34043 -0.11395,-0.13476 -0.26402,-0.20602 -0.41134,-0.26176 -0.14827,-0.0554 -0.30042,-0.0956 -0.43325,-0.14464 -0.14068,-0.0515 -0.28222,-0.0942 -0.39468,-0.14746 -0.11381,-0.0533 -0.19015,-0.11253 -0.22998,-0.18415 -0.0503,-0.0914 -0.0704,-0.16369 -0.0708,-0.24447 l 0.006,-0.0765 1.1e-4,-0.002 c 0.0149,-0.12136 0.14333,-0.29069 0.30208,-0.37395 0.1458,-0.0811 0.39,-0.13758 0.63419,-0.20814 0.24253,-0.0741 0.49911,-0.1591 0.67038,-0.37676 0.0999,-0.13088 0.14595,-0.28822 0.14581,-0.44309 -3e-4,-0.21873 -0.0901,-0.4385 -0.26498,-0.59408 -0.32152,-0.2801 -0.77434,-0.43956 -1.10659,-0.61313 -0.13243,-0.0681 -0.2432,-0.15028 -0.31983,-0.23953 -0.0769,-0.0896 -0.12029,-0.18239 -0.13105,-0.28646 l -0.005,-0.0886 c 1.4e-4,-0.13617 0.032,-0.26952 0.10128,-0.38382 l 4.2e-4,-7.1e-4 c 0.0415,-0.0677 0.0695,-0.0935 0.11081,-0.1196 0.0414,-0.0261 0.10679,-0.0505 0.20764,-0.0818 0.1403,-0.0445 0.2715,-0.0942 0.39967,-0.13687 0.17829,-0.0596 0.3496,-0.12312 0.52034,-0.17851 0.0708,-0.0233 0.16768,-0.0466 0.26759,-0.0765 0.10018,-0.031 0.20464,-0.067 0.30042,-0.13441 0.15254,-0.11077 0.25301,-0.26987 0.31418,-0.40816 l 3e-4,-7.2e-4 c 0.0363,-0.0857 0.0533,-0.1785 0.0533,-0.27199 0,-0.12629 -0.0314,-0.25611 -0.10048,-0.37288 -0.0683,-0.11607 -0.1779,-0.21802 -0.32176,-0.27552 l -0.0656,0.16369 -0.0659,0.16368 c 0.0697,0.0286 0.11617,0.0723 0.15003,0.12842 0.0334,0.0561 0.051,0.12558 0.051,0.19261 0,0.0497 -0.01,0.0974 -0.0256,0.13476 l 4.3e-4,-7.1e-4 c -0.0354,0.0871 -0.12305,0.21202 -0.19403,0.25929 -0.0379,0.0279 -0.11257,0.0586 -0.19872,0.0843 -0.0864,0.0261 -0.18299,0.049 -0.27422,0.0787 -0.17984,0.0582 -0.35239,0.12206 -0.52324,0.17956 -0.13656,0.0455 -0.2661,0.0945 -0.39384,0.13477 -0.10407,0.0332 -0.19596,0.0628 -0.2861,0.11747 -0.0902,0.0547 -0.168095,0.13617 -0.228875,0.23918 l 4.2e-4,-7.1e-4 c -0.10735,0.17745 -0.15229,0.37571 -0.15215,0.56656 0,0.042 0.002,0.0829 0.006,0.12347 0.0182,0.18556 0.0999,0.34961 0.214835,0.4819 0.11518,0.13335 0.26264,0.23883 0.42552,0.32279 0.36107,0.1838 0.79347,0.34784 1.03438,0.56409 0.0938,0.0822 0.14633,0.20814 0.14605,0.3295 -1.4e-4,0.0861 -0.0255,0.16615 -0.0734,0.22895 -0.0735,0.10266 -0.25989,0.18732 -0.48976,0.25223 -0.22832,0.0684 -0.48602,0.1203 -0.70333,0.23707 -0.23979,0.1337 -0.435185,0.35736 -0.481755,0.62936 l 0.174305,0.0272 -0.174055,-0.0289 c -0.008,0.0455 -0.0112,0.0907 -0.0112,0.1344 -5.6e-4,0.14782 0.0433,0.28787 0.11589,0.41699 0.09369,0.1658 0.242805,0.26282 0.387625,0.3309 0.14623,0.0684 0.29683,0.11254 0.42319,0.15946 0.20465,0.0741 0.4082,0.12312 0.54504,0.19226 0.0686,0.0339 0.11822,0.0702 0.15022,0.10901 0.0317,0.0392 0.0516,0.0797 0.0594,0.14993 l 0.17557,-0.0177 -0.17572,0.0152 0.002,0.0317 c 0,0.085 -0.0385,0.16934 -0.1192,0.26247 -0.0797,0.0917 -0.19692,0.18238 -0.31764,0.26388 -0.24088,0.16263 -0.4947,0.31361 -0.75861,0.45437 -0.26127,0.13935 -0.517175,0.28082 -0.775965,0.41346 -0.1608,0.084 -0.34297,0.18309 -0.49816,0.21308 -0.0827,0.0166 -0.14164,0.0889 -0.14164,0.17286 v 0.0166 h 0.17639 l 0.0215,-0.17498 -0.0696,-0.009 h -0.0433 l -0.0696,0.009 0.0216,0.17498 h 0.17639 v -0.0166 c 0,-0.084 -0.0592,-0.15628 -0.14179,-0.17286 -0.15571,-0.03 -0.3375,-0.12877 -0.49801,-0.21308 -0.25908,-0.13264 -0.51513,-0.27411 -0.77597,-0.41346 -0.26444,-0.14076 -0.51774,-0.29174 -0.7589,-0.45473 -0.12058,-0.0811 -0.23812,-0.1718 -0.31792,-0.26352 -0.0808,-0.0931 -0.11935,-0.17745 -0.1192,-0.26212 l 0.002,-0.0293 c 0.008,-0.0705 0.0277,-0.11112 0.0593,-0.15028 0.0469,-0.0578 0.1385,-0.11112 0.2643,-0.15769 0.1247,-0.0473 0.2771,-0.0875 0.43091,-0.14358 0.12637,-0.0469 0.27711,-0.091 0.42334,-0.15946 0.14481,-0.0681 0.29393,-0.1651 0.38735,-0.33055 0.0726,-0.12911 0.11631,-0.26881 0.11578,-0.41663 1.1e-4,-0.0441 -0.004,-0.0889 -0.0108,-0.1337 -0.0465,-0.27164 -0.24172,-0.4953 -0.48151,-0.62901 -0.21717,-0.11676 -0.47484,-0.16862 -0.70333,-0.23706 -0.22973,-0.0649 -0.41617,-0.14958 -0.48948,-0.25224 -0.0488,-0.0632 -0.074,-0.14322 -0.074,-0.2293 -2.9e-4,-0.12101 0.052,-0.24695 0.14609,-0.32914 0.24073,-0.21626 0.67359,-0.3803 1.03462,-0.5641 0.16288,-0.084 0.31034,-0.18944 0.42542,-0.32279 0.1149,-0.13229 0.19678,-0.29633 0.21495,-0.48189 l 2.9e-4,-0.001 c 0.003,-0.0392 0.006,-0.0797 0.006,-0.12171 1.4e-4,-0.19121 -0.0451,-0.38911 -0.15184,-0.56656 -0.0604,-0.10266 -0.13808,-0.18415 -0.22835,-0.23883 -0.0901,-0.0547 -0.18203,-0.0843 -0.28663,-0.11748 -0.12722,-0.0402 -0.25714,-0.0893 -0.39413,-0.13476 -0.17032,-0.0575 -0.34286,-0.12135 -0.52267,-0.17956 -0.0912,-0.0296 -0.18796,-0.0526 -0.27439,-0.0787 -0.0861,-0.0257 -0.1608,-0.0564 -0.19844,-0.0843 -0.0712,-0.0473 -0.15914,-0.17251 -0.19403,-0.25894 -0.016,-0.0374 -0.0256,-0.0847 -0.0256,-0.13406 0,-0.067 0.0176,-0.13687 0.0511,-0.19261 0.034,-0.0564 0.0805,-0.10019 0.15036,-0.12877 l 1.40973,-0.56797 c 0.11931,-0.0519 0.18422,-0.13864 0.23908,-0.22154 0.0531,-0.0854 0.089,-0.16863 0.10777,-0.24695 l 2.5e-4,-10e-4 c 0.0127,-0.0575 0.0204,-0.11959 0.0204,-0.18415 -1.4e-4,-0.10654 -0.0201,-0.22084 -0.079,-0.32702 -0.0624,-0.11219 -0.1579,-0.18627 -0.2534,-0.23919 -0.0963,-0.0526 -0.19668,-0.0864 -0.289,-0.1143 -0.29862,-0.0857 -0.58261,-0.12911 -0.74827,-0.26352 -0.10968,-0.0847 -0.22352,-0.2092 -0.26981,-0.30445 -0.0145,-0.0296 -0.0185,-0.0515 -0.019,-0.0882 -0.002,-0.0543 0.0189,-0.13723 0.0202,-0.25082 v -1.1871 h 2.62033 0.13935 2.620315 l 1.4e-4,1.1871 c 10e-4,0.11253 0.0211,0.19508 0.0197,0.25012 -3.9e-4,0.037 -0.005,0.06 -0.0189,0.0893 l 4.3e-4,-7.2e-4 c -0.0469,0.0956 -0.16083,0.22014 -0.27079,0.3048 -0.16535,0.13441 -0.44923,0.1778 -0.74786,0.26353 -0.0922,0.0279 -0.19251,0.0617 -0.28882,0.1143 -0.0955,0.0529 -0.19113,0.127 -0.25386,0.23989 l 7.2e-4,-0.001 c -0.0596,0.10654 -0.0794,0.22119 -0.0795,0.32808 0,0.0639 0.007,0.12629 0.0208,0.18521 0.0189,0.0783 0.0547,0.16157 0.10774,0.24694 0.0549,0.0829 0.11976,0.16969 0.23854,0.22119 l 1.4103,0.56833 0.066,-0.16369"
       style="fill:#00426b;fill-opacity:1;fill-rule:nonzero;stroke:none;stroke-width:0.03527778"
       id="path122"
       inkscape:connector-curvature="0" />
    <path
       d="m 97.530315,145.42303 h -4.32001 v -3.83081 h 4.32001 v 3.83081"
       style="fill:#96b7c5;fill-opacity:1;fill-rule:nonzero;stroke:none;stroke-width:0.03527778"
       id="path124"
       inkscape:connector-curvature="0" />
    <path
       d="m 104.84921,145.42303 v -0.17639 H 93.386555 v -3.47803 h 11.286275 v 3.65442 h 0.17638 v -0.17639 0.17639 h 0.17639 v -3.83081 c 0,-0.0469 -0.0183,-0.0914 -0.0517,-0.12453 -0.0333,-0.0335 -0.0776,-0.0519 -0.1247,-0.0519 H 93.210305 c -0.0464,0 -0.0919,0.019 -0.12471,0.0519 -0.0329,0.0328 -0.0517,0.0783 -0.0517,0.12453 v 3.83081 c 0,0.0473 0.0183,0.0914 0.0517,0.12489 0.0332,0.0332 0.0776,0.0515 0.12471,0.0515 h 11.638905 c 0.0471,0 0.0914,-0.0183 0.12471,-0.0515 0.0334,-0.0335 0.0517,-0.0776 0.0517,-0.12489 h -0.17639"
       style="fill:#00426b;fill-opacity:1;fill-rule:nonzero;stroke:none;stroke-width:0.03527778"
       id="path126"
       inkscape:connector-curvature="0" />
    <path
       d="m 91.170525,141.81107 c -2.64817,-3.88443 -1.0589,-8.29839 -1.0589,-8.29839 0.70986,-1.84538 2.08541,-3.21451 4.10824,-3.37961 1.7363,-0.14146 3.16466,1.24707 4.81044,1.3395 1.645105,-0.0924 3.073715,-1.48096 4.810185,-1.3395 2.02266,0.1651 3.39838,1.53423 4.1081,3.37961 0,0 1.58927,4.41396 -1.05907,8.29839 0,0 -6.909045,3.09351 -15.718995,0"
       style="fill:#effaff;fill-opacity:1;fill-rule:nonzero;stroke:none;stroke-width:0.03527778"
       id="path128-3"
       inkscape:connector-curvature="0"
       clip-path="none" />
    <path
       d="m 91.170265,141.81094 0.1458,-0.0995 c -1.17877,-1.72897 -1.50125,-3.56553 -1.50153,-5.06095 0,-0.89712 0.11645,-1.6697 0.23276,-2.21686 0.058,-0.2734 0.11617,-0.49036 0.15932,-0.63817 0.0216,-0.0737 0.0395,-0.13053 0.0519,-0.16828 0.0124,-0.0377 0.0188,-0.055 0.0186,-0.055 l -0.1658,-0.0596 0.16457,0.0632 c 0.34643,-0.901 0.85326,-1.67887 1.51264,-2.24967 0.65984,-0.57079 1.47038,-0.93697 2.44535,-1.01705 0.0792,-0.007 0.1579,-0.01 0.2359,-0.01 0.76553,-7.2e-4 1.49105,0.30021 2.23107,0.62688 0.73932,0.32456 1.49088,0.67487 2.3191,0.72249 h 0.0198 c 0.82793,-0.0476 1.579235,-0.39793 2.318555,-0.72249 0.73988,-0.32667 1.46568,-0.62759 2.23132,-0.62688 0.0781,0 0.15652,0.003 0.2359,0.01 0.97525,0.0801 1.78569,0.44626 2.44549,1.01705 0.65938,0.5708 1.16607,1.34867 1.51285,2.24967 l 0.1644,-0.0632 -0.16581,0.0596 0.004,0.0127 c 0.0483,0.13899 0.45826,1.38359 0.45791,3.06529 -3.5e-4,1.49542 -0.3228,3.33234 -1.50121,5.0613 l 0.1458,0.0995 -0.0708,-0.16157 -0.0365,0.0155 c -0.3762,0.15804 -3.61058,1.45626 -7.941625,1.45591 -2.31027,0 -4.93187,-0.36865 -7.60264,-1.47285 l -0.0674,0.16299 0.1458,-0.0995 -0.1458,0.0995 -0.0674,0.16298 c 2.72094,1.12501 5.38991,1.49966 7.7374,1.49966 4.694975,-7.2e-4 8.106015,-1.49578 8.119815,-1.50107 l 0.0748,-0.0624 c 1.22847,-1.80199 1.5629,-3.71545 1.56255,-5.25991 -3.4e-4,-1.85491 -0.47907,-3.18523 -0.48295,-3.19758 l -10e-4,-0.004 c -0.36336,-0.94438 -0.8993,-1.77341 -1.61089,-2.38971 -0.71124,-0.61666 -1.59992,-1.01706 -2.64763,-1.10208 -0.0892,-0.007 -0.17763,-0.0109 -0.26487,-0.0109 -0.85961,0.001 -1.63103,0.33091 -2.37338,0.65687 -0.74306,0.32809 -1.458805,0.65264 -2.196185,0.69321 l 0.01,0.17604 0.01,-0.17604 c -0.73795,-0.0406 -1.45384,-0.36512 -2.19672,-0.69321 -0.74249,-0.32596 -1.51377,-0.65581 -2.37328,-0.65651 -0.0873,-3.5e-4 -0.17568,0.003 -0.26472,0.0106 -1.04773,0.085 -1.93641,0.48542 -2.64747,1.10207 -0.71176,0.61631 -1.2477,1.44533 -1.61092,2.38972 l -0.001,0.004 c -0.004,0.0123 -0.48313,1.34267 -0.48341,3.19793 -2.5e-4,1.54446 0.33404,3.45758 1.56255,5.25992 0.0193,0.0282 0.0466,0.0504 0.0784,0.0635 l 0.0674,-0.16299"
       style="fill:#00426b;fill-opacity:1;fill-rule:nonzero;stroke:none;stroke-width:0.03527778"
       id="path134"
       inkscape:connector-curvature="0" />
    <path
       d="m 97.963175,131.43645 c 0.003,7.2e-4 0.59048,0.20955 1.36881,0.4191 0.779525,0.20885 1.745545,0.41981 2.526765,0.42087 0.269,-3.5e-4 0.51717,-0.025 0.73378,-0.0896 0.21541,-0.0642 0.40569,-0.1711 0.53153,-0.34537 0.0568,-0.079 0.0388,-0.18909 -0.0401,-0.24588 -0.0789,-0.0571 -0.18919,-0.0392 -0.24599,0.0399 -0.0639,0.0892 -0.17692,0.16298 -0.34629,0.21343 -0.16827,0.0504 -0.3864,0.0748 -0.63292,0.0748 -0.71935,7e-4 -1.67142,-0.20285 -2.435145,-0.40887 -0.38241,-0.10301 -0.71865,-0.20567 -0.9591,-0.28293 -0.12019,-0.0384 -0.21636,-0.0705 -0.28222,-0.0931 -0.0659,-0.0222 -0.1009,-0.0349 -0.10104,-0.0349 -0.0918,-0.0325 -0.19261,0.0155 -0.22514,0.10725 -0.0327,0.0917 0.0154,0.19261 0.10721,0.22542"
       style="fill:#00426b;fill-opacity:1;fill-rule:nonzero;stroke:none;stroke-width:0.03527778"
       id="path136"
       inkscape:connector-curvature="0" />
  </g>
</svg>
