<?xml version="1.0" encoding="UTF-8" standalone="no"?>
<!-- Created with Inkscape (http://www.inkscape.org/) -->

<svg
   xmlns:dc="http://purl.org/dc/elements/1.1/"
   xmlns:cc="http://creativecommons.org/ns#"
   xmlns:rdf="http://www.w3.org/1999/02/22-rdf-syntax-ns#"
   xmlns:svg="http://www.w3.org/2000/svg"
   xmlns="http://www.w3.org/2000/svg"
   xmlns:sodipodi="http://sodipodi.sourceforge.net/DTD/sodipodi-0.dtd"
   xmlns:inkscape="http://www.inkscape.org/namespaces/inkscape"
   width="70.330231mm"
   height="92.675362mm"
   viewBox="0 0 70.330231 92.675362"
   version="1.1"
   id="svg1140"
   inkscape:version="0.92.5 (0.92.5+68)"
   sodipodi:docname="logo.svg">
  <defs
     id="defs1134">
    <clipPath
       clipPathUnits="userSpaceOnUse"
       id="clipPath20">
      <path
         d="M 0,500 H 500 V 0 H 0 Z"
         id="path18"
         inkscape:connector-curvature="0" />
    </clipPath>
    <clipPath
       clipPathUnits="userSpaceOnUse"
       id="clipPath52">
      <path
         d="M 114.147,447.953 H 294.848 V 311.872 H 114.147 Z"
         id="path50"
         inkscape:connector-curvature="0" />
    </clipPath>
  </defs>
  <sodipodi:namedview
     id="base"
     pagecolor="#ffffff"
     bordercolor="#666666"
     borderopacity="1.0"
     inkscape:pageopacity="0.0"
     inkscape:pageshadow="2"
     inkscape:zoom="0.35"
     inkscape:cx="-312.5143"
     inkscape:cy="173.87469"
     inkscape:document-units="mm"
     inkscape:current-layer="layer1"
     showgrid="false"
     fit-margin-top="0"
     fit-margin-left="0"
     fit-margin-right="0"
     fit-margin-bottom="0"
     inkscape:window-width="1920"
     inkscape:window-height="1029"
     inkscape:window-x="0"
     inkscape:window-y="25"
     inkscape:window-maximized="1" />
  <metadata
     id="metadata1137">
    <rdf:RDF>
      <cc:Work
         rdf:about="">
        <dc:format>image/svg+xml</dc:format>
        <dc:type
           rdf:resource="http://purl.org/dc/dcmitype/StillImage" />
        <dc:title></dc:title>
      </cc:Work>
    </rdf:RDF>
  </metadata>
  <g
     inkscape:label="Layer 1"
     inkscape:groupmode="layer"
     id="layer1"
     transform="translate(-69.834884,-102.16232)">
    <g
       transform="matrix(0.35277777,0,0,-0.35277777,32.859869,263.48306)"
       id="g16"
       clip-path="url(#clipPath20)">
      <g
         id="g26"
         transform="translate(151.3179,338.4687)">
        <path
           d="m 0,0 c -18.387,-73.822 -15.589,-138.075 6.25,-143.515 21.838,-5.439 54.447,49.995 72.834,123.817 z"
           style="fill:#b7c2b4;fill-opacity:1;fill-rule:nonzero;stroke:none"
           id="path28"
           inkscape:connector-curvature="0" />
      </g>
      <g
         id="g30"
         transform="translate(142.0542,285.0859)">
        <path
           d="m 0,0 c -2.715,0 -4.943,2.173 -4.997,4.9 -0.055,2.762 2.139,5.044 4.899,5.099 l 80.569,1.603 c 0.034,10e-4 0.068,10e-4 0.102,10e-4 2.715,0 4.943,-2.173 4.997,-4.9 0.055,-2.762 -2.139,-5.044 -4.9,-5.099 L 0.102,0.001 C 0.067,0 0.034,0 0,0"
           style="fill:#a4ada1;fill-opacity:1;fill-rule:nonzero;stroke:none"
           id="path32"
           inkscape:connector-curvature="0" />
      </g>
      <g
         id="g34"
         transform="translate(139.1724,246.7754)">
        <path
           d="M 0,0 C -2.715,0 -4.943,2.174 -4.997,4.901 -5.052,7.662 -2.858,9.945 -0.098,10 l 69.247,1.379 C 71.9,11.46 74.193,9.241 74.248,6.48 74.303,3.719 72.109,1.436 69.349,1.381 L 0.102,0.001 C 0.068,0 0.034,0 0,0"
           style="fill:#a4ada1;fill-opacity:1;fill-rule:nonzero;stroke:none"
           id="path36"
           inkscape:connector-curvature="0" />
      </g>
      <g
         id="g38"
         transform="translate(143.2627,208.8682)">
        <path
           d="m 0,0 c -2.715,0 -4.943,2.174 -4.997,4.9 -0.055,2.761 2.139,5.044 4.899,5.099 l 43.946,0.875 c 0.034,10e-4 0.068,10e-4 0.101,10e-4 2.716,0 4.943,-2.174 4.997,-4.9 C 49.001,3.214 46.808,0.931 44.047,0.876 L 0.102,0.001 C 0.067,0 0.034,0 0,0"
           style="fill:#a4ada1;fill-opacity:1;fill-rule:nonzero;stroke:none"
           id="path40"
           inkscape:connector-curvature="0" />
      </g>
      <g
         id="g42"
         transform="translate(265.8359,307.5054)">
        <path
           d="m 0,0 c 9.847,6.965 18.658,16.147 25.476,27.211 22.329,36.239 14.842,78.825 -16.721,95.118 -16.075,8.298 -35.297,8.176 -53.239,1.27 -3.304,-1.271 -7.031,-0.343 -9.352,2.329 -12.607,14.515 -29.525,23.639 -47.615,23.85 -35.519,0.415 -62.105,-33.684 -59.382,-76.163 0.832,-12.969 4.306,-25.211 9.736,-35.981 l 15.355,-10.111 C -101.066,4.69 -59.638,-5.628 -18.304,-1.728 Z"
           style="fill:#f0efef;fill-opacity:1;fill-rule:nonzero;stroke:none"
           id="path44"
           inkscape:connector-curvature="0" />
      </g>
      <g
         id="g46">
        <g
           id="g48" />
        <g
           id="g60">
          <g
             clip-path="url(#clipPath52)"
             id="g58"
             style="opacity:0.39999402">
            <g
               transform="translate(270.3086,421.54)"
               id="g56">
              <path
                 d="m 0,0 v 0 c -13.173,6.8 -29.369,7.101 -45.605,0.852 -6.94,-2.67 -14.875,-0.694 -19.75,4.92 -8.607,9.91 -18.945,16.516 -29.867,19.236 -3.555,0.886 -7.172,1.36 -10.811,1.402 -12.585,0.147 -24.05,-4.848 -33.156,-14.443 -11.978,-12.622 -18.102,-31.499 -16.801,-51.79 0.72,-11.248 3.748,-22.443 8.756,-32.376 0.771,-1.529 1.431,-3.1 1.983,-4.702 18.621,-10.285 40.15,-18.809 63.649,-24.662 23.5,-5.854 46.512,-8.423 67.782,-8.074 1.238,1.157 2.559,2.234 3.957,3.223 9.08,6.422 17.005,14.889 22.92,24.486 10.666,17.311 14.11,36.854 9.453,53.619 C 18.968,-15.562 11.185,-5.773 0,0"
                 style="fill:#ffffff;fill-opacity:1;fill-rule:nonzero;stroke:none"
                 id="path54"
                 inkscape:connector-curvature="0" />
            </g>
          </g>
        </g>
      </g>
      <g
         id="g62"
         transform="translate(299.3545,378.0103)">
        <path
           d="m 0,0 c 0.051,9.843 -2.354,19.239 -7.325,27.075 l -11.96,-7.589 c 3.431,-5.408 5.148,-11.936 5.196,-18.884 z"
           style="fill:#ffffff;fill-opacity:1;fill-rule:nonzero;stroke:none"
           id="path64"
           inkscape:connector-curvature="0" />
      </g>
      <g
         id="g66"
         transform="translate(285.0576,374.2271)">
        <path
           d="m 0,0 c -0.687,-7.552 -3.234,-15.413 -7.643,-22.751 l 12.141,-7.295 c 5.565,9.261 8.754,19.292 9.587,29.061 z"
           style="fill:#ffffff;fill-opacity:1;fill-rule:nonzero;stroke:none"
           id="path68"
           inkscape:connector-curvature="0" />
      </g>
      <g
         id="g70"
         transform="translate(248.083,426.4624)">
        <path
           d="m 0,0 c -1.597,3.936 -12.108,4.749 -23.479,1.815 -1.55,-0.399 -3.034,-0.848 -4.438,-1.336 -3.141,-1.09 -6.809,-0.177 -9.071,2.259 C -38,3.828 -39.1,4.92 -40.281,6 c -8.667,7.924 -18.332,12.137 -21.588,9.41 -3.256,-2.727 1.129,-11.36 9.796,-19.284 4.342,-3.969 8.933,-7.006 12.845,-8.708 0.747,-0.414 1.674,-0.748 2.743,-1.003 0.08,-0.024 0.154,-0.038 0.233,-0.06 0.08,-0.018 0.152,-0.04 0.233,-0.057 1.064,-0.275 2.04,-0.416 2.894,-0.399 4.252,-0.333 9.732,0.196 15.429,1.665 C -6.326,-9.503 1.597,-3.936 0,0"
           style="fill:#e5e6e6;fill-opacity:1;fill-rule:nonzero;stroke:none"
           id="path72"
           inkscape:connector-curvature="0" />
      </g>
    </g>
  </g>
</svg>
