<?xml version="1.0" encoding="UTF-8" standalone="no"?>
<!-- Created with Inkscape (http://www.inkscape.org/) -->

<svg
   xmlns:dc="http://purl.org/dc/elements/1.1/"
   xmlns:cc="http://creativecommons.org/ns#"
   xmlns:rdf="http://www.w3.org/1999/02/22-rdf-syntax-ns#"
   xmlns:svg="http://www.w3.org/2000/svg"
   xmlns="http://www.w3.org/2000/svg"
   xmlns:sodipodi="http://sodipodi.sourceforge.net/DTD/sodipodi-0.dtd"
   xmlns:inkscape="http://www.inkscape.org/namespaces/inkscape"
   width="13.890557mm"
   height="17.671776mm"
   viewBox="0 0 13.890557 17.671776"
   version="1.1"
   id="svg2490"
   inkscape:version="0.92.5 (0.92.5+68)"
   sodipodi:docname="logo2.svg">
  <defs
     id="defs2484" />
  <sodipodi:namedview
     id="base"
     pagecolor="#ffffff"
     bordercolor="#666666"
     borderopacity="1.0"
     inkscape:pageopacity="0.0"
     inkscape:pageshadow="2"
     inkscape:zoom="0.7875"
     inkscape:cx="-373.75011"
     inkscape:cy="-169.46166"
     inkscape:document-units="mm"
     inkscape:current-layer="layer1"
     showgrid="false"
     fit-margin-top="0"
     fit-margin-left="0"
     fit-margin-right="0"
     fit-margin-bottom="0"
     inkscape:window-width="1920"
     inkscape:window-height="1029"
     inkscape:window-x="0"
     inkscape:window-y="25"
     inkscape:window-maximized="1" />
  <metadata
     id="metadata2487">
    <rdf:RDF>
      <cc:Work
         rdf:about="">
        <dc:format>image/svg+xml</dc:format>
        <dc:type
           rdf:resource="http://purl.org/dc/dcmitype/StillImage" />
        <dc:title></dc:title>
      </cc:Work>
    </rdf:RDF>
  </metadata>
  <g
     inkscape:label="Layer 1"
     inkscape:groupmode="layer"
     id="layer1"
     transform="translate(-88.304718,-86.324827)">
    <g
       id="g50"
       transform="matrix(0.35277777,0,0,-0.35277777,101.72818,88.018591)"
       style="fill:#56b5ed;fill-opacity:1">
      <path
         d="m 0,0 c -2.317,5.504 -7.532,5.408 -11.01,3.959 -2.288,-0.953 -4.749,-1.446 -6.165,-1.672 -0.792,-0.126 -1.585,-0.126 -2.377,0 -1.415,0.226 -3.877,0.719 -6.165,1.672 -3.477,1.449 -8.692,1.545 -11.01,-3.959 -2.176,-5.168 -1.712,-15.785 1.709,-21.379 0.447,-0.731 0.694,-1.561 0.699,-2.418 0.039,-6.625 1.063,-21.495 7.153,-21.495 1.545,0 1.835,1.352 1.738,6.47 -0.086,4.57 -0.072,12.45 5.009,14.568 1.302,0.543 2.809,0.543 4.112,0 5.08,-2.118 5.094,-9.998 5.008,-14.568 -0.097,-5.118 0.194,-6.47 1.738,-6.47 6.091,0 7.114,14.87 7.154,21.495 0.005,0.857 0.252,1.687 0.698,2.418 C 1.713,-15.785 2.176,-5.168 0,0"
         style="fill:#56b5ed;fill-opacity:1;fill-rule:nonzero;stroke:none"
         id="path52"
         inkscape:connector-curvature="0" />
    </g>
  </g>
</svg>
