<?xml version="1.0" encoding="UTF-8" standalone="no"?>
<!-- Created with Inkscape (http://www.inkscape.org/) -->

<svg
   xmlns:dc="http://purl.org/dc/elements/1.1/"
   xmlns:cc="http://creativecommons.org/ns#"
   xmlns:rdf="http://www.w3.org/1999/02/22-rdf-syntax-ns#"
   xmlns:svg="http://www.w3.org/2000/svg"
   xmlns="http://www.w3.org/2000/svg"
   xmlns:sodipodi="http://sodipodi.sourceforge.net/DTD/sodipodi-0.dtd"
   xmlns:inkscape="http://www.inkscape.org/namespaces/inkscape"
   version="1.1"
   id="svg2"
   xml:space="preserve"
   width="425.39944"
   height="425.10266"
   viewBox="0 0 425.39944 425.10266"
   sodipodi:docname="logo4.svg"
   inkscape:version="0.92.5 (0.92.5+68)"><metadata
     id="metadata8"><rdf:RDF><cc:Work
         rdf:about=""><dc:format>image/svg+xml</dc:format><dc:type
           rdf:resource="http://purl.org/dc/dcmitype/StillImage" /><dc:title></dc:title></cc:Work></rdf:RDF></metadata><defs
     id="defs6" /><sodipodi:namedview
     pagecolor="#ffffff"
     bordercolor="#666666"
     borderopacity="1"
     objecttolerance="10"
     gridtolerance="10"
     guidetolerance="10"
     inkscape:pageopacity="0"
     inkscape:pageshadow="2"
     inkscape:window-width="1920"
     inkscape:window-height="1029"
     id="namedview4"
     showgrid="false"
     fit-margin-top="0"
     fit-margin-left="0"
     fit-margin-right="0"
     fit-margin-bottom="0"
     inkscape:zoom="1.6190628"
     inkscape:cx="106.71272"
     inkscape:cy="189.06663"
     inkscape:window-x="0"
     inkscape:window-y="25"
     inkscape:window-maximized="1"
     inkscape:current-layer="g963" /><g
     id="g10"
     inkscape:groupmode="layer"
     inkscape:label="ink_ext_XXXXXX"
     transform="matrix(1.3333333,0,0,-1.3333333,-70.766946,504.07799)"><g
       id="g12"
       transform="scale(0.1)"><path
         d="m 3652.7781,2127.925 68.47,58.52 -68.47,58.53 63.93,63.56 -72.72,53.19 58.83,68.2 -76.48,47.48 53.34,72.59 -80.03,41.44 47.71,76.5 -82.99,35.14 41.57,79.88 -85.33,28.66 35.32,82.89 -87.39,21.97 28.94,85.35 -88.76,15.23 22.25,87.31 -89.72,8.38 15.58,88.72 -90.11,1.51 8.81,89.73 -89.93,-5.37 1.93,90.03 -89.32,-12.17 -4.92,90.04 -88.17,-18.97 -11.8,89.4 -86.43,-25.65 -18.56,88.15 -84.15,-32.16 -25.36,86.47 -81.44,-38.51 -31.97,84.37 -78.2,-44.81 -38.34,81.63 -74.6,-50.66 -44.49,78.43 -70.53,-56.27 -50.3,74.77 -66,-61.49 -55.85,70.62 -61.07,-66.18 -61.01,66.21 -55.95,-70.63 -65.88,61.47 -50.44,-74.75 -70.41,56.25 -44.51,-78.43 -74.51,50.66 -38.41,-81.63 -78.28,44.81 -31.84,-84.36 -81.53,38.57 -25.3,-86.54 -84.23,32.16 -18.53,-88.15 -86.52,25.65 -11.77,-89.38 -88.09,18.97 -4.89,-89.99 -89.27,12.1 1.86,-89.98 -89.83999,5.35 8.703,-89.7 -90.11,-1.52 15.594,-88.74 -89.644,-8.36 22.207,-87.36 -88.887,-15.23 28.98,-85.3 -87.429,-21.97 35.39,-82.92 -85.449,-28.58 41.641,-79.98 -83.067,-35.14 47.762,-76.5 -80.164,-41.44 53.574,-72.59 -76.609,-47.48 58.902,-68.27 -72.644,-53.12 63.804,-63.54 -68.48,-58.55 68.48,-58.54 -63.836,-63.47 72.676,-53.21 -58.902,-68.25 76.609,-47.47 -53.574,-72.57 80.164,-41.46 -47.762,-76.49 83.067,-35.16 -41.641,-79.93 85.41,-28.6 -35.351,-82.88 87.383,-22.01 -28.934,-85.36 88.855,-15.22 -22.277,-87.19 89.672,-8.49 -15.617,-88.76 90.156,-1.49 -8.75,-89.68 89.87799,5.4 -1.95,-90.10801 89.33,12.17801 4.98,-90.01001 88.06,18.98 11.8,-89.34 86.44,25.621 18.57,-88.203 84.22,32.172 25.3,-86.469 81.58,38.559 31.8,-84.332 78.22,44.703 38.41,-81.652 74.61,50.672 44.41,-78.411 70.51,56.27 50.44,-74.719 65.86,61.387 55.97,-70.598 61.01,66.211 61.07,-66.211 55.85,70.641 66,-61.43 50.3,74.68 70.48,-56.231 44.44,78.43 74.62,-50.691 38.32,81.652 78.23,-44.703 31.92,84.332 81.5,-38.609 25.32,86.519 84.25,-32.172 18.56,88.16 86.43,-25.609 11.8,89.34 88.1,-19.027 4.91,90.02801 89.35,-12.11801 -1.97,90.00801 89.94,-5.35 -8.79,89.71 90.17,1.51 -15.58,88.74 89.6,8.37 -22.21,87.33 88.76,15.29 -28.86,85.26 87.39,21.99 -35.32,82.9 85.33,28.63 -41.62,79.96 83.04,35.15 -47.71,76.47 80.03,41.43 -53.34,72.6 76.48,47.47 -58.9,68.25 72.79,53.21 -63.93,63.49"
         style="fill:#ffffff;fill-opacity:1;fill-rule:nonzero;stroke:none"
         id="path70"
         inkscape:connector-curvature="0" /><g
         id="g963"
         transform="matrix(1.2189943,0,0,1.2189943,-465.58268,-847.59662)"><path
           inkscape:connector-curvature="0"
           id="path72"
           style="fill:#40a3e8;fill-opacity:1;fill-rule:nonzero;stroke:none"
           d="m 2766.58,3222.38 c -84.29,83.5 -177.2,125.84 -276.17,125.84 -105.48,0 -184.8,-48.54 -227.41,-74.63 -3.62,-2.22 -9.21,-5.65 -12.12,-7.32 l -1.25,-0.53 c -6.54,-2.81 -12.72,-6.39 -18.4,-10.7 l -2.58,-1.94 c -14.51,-10.32 -62.81,-38.44 -102.27,-38.44 l -2.81,-0.01 c -38.19,0 -85.91,28.15 -100.11,38.36 l -2.69,2.03 c -5.66,4.29 -11.82,7.86 -18.34,10.67 l -1.35,0.58 c -2.91,1.66 -8.47,5.07 -11.98,7.23 -42.65,26.12 -121.98,74.7 -227.51,74.7 -98.98,0 -191.89,-42.34 -276.16,-125.85 -59.67,-59.11 -123.25,-165.93 -87.18,-339.04 21.41,-102.75 71.26,-199.08 104.24,-262.81 10.83,-20.92 21.88,-42.28 26.47,-53.45 0.2,-0.78 0.4,-1.62 0.63,-2.52 l 0.99,-3.88 c 6.83,-26.5 21.03,-81.7 54.23,-132.54 46.27,-70.84 113.74,-110.9 195.11,-115.89 l 0.45,-0.02 c 4.56,-7.86 9.92,-15.22 15.95,-21.98 v -81.58 c 0,-4.4 0.23,-8.81 0.67,-13.2 -0.44,-4.32 -0.67,-8.65 -0.67,-12.97 v -148.57 c 0,-5.07 0.3,-10.12 0.86,-15.12 -0.56,-5.09 -0.86,-10.26 -0.86,-15.46 v -63.66 c 0,-51.65 29.41,-96.53 72.28,-118.63 l 51.23,-116.55 c 22.74,-51.67 76.13,-74.77 118.98,-74.77 h 166.5 c 15.53,0 30.64,2.55 44.95,7.58 33.76,11.45 60.98,35.98 74.81,67.44 l 42.82,97.38 8.38,19.09 c 42.84,22.08 72.17,66.6 72.17,117.83 v 148.55 c 0,5.07 -0.28,10.11 -0.85,15.12 0.57,5.1 0.85,10.25 0.85,15.45 v 148.57 c 0,4.31 -0.21,8.63 -0.63,12.92 0.32,3.34 0.52,6.7 0.59,10.07 6.29,6.83 11.77,14.29 16.39,22.28 h 0.83 c 2.06,0 4.13,0.07 6.19,0.21 l 0.69,0.05 c 81.19,5.09 148.49,45.15 194.68,115.86 33.22,50.84 47.42,106.04 54.24,132.55 l 0.99,3.86 c 0.24,0.93 0.45,1.81 0.65,2.61 4.35,10.62 15.35,31.89 26,52.49 l 0.45,0.89 c 32.97,63.69 82.82,160.01 104.24,262.78 36.07,173.11 -27.5,279.94 -87.17,339.07" /><path
           inkscape:connector-curvature="0"
           id="path74"
           style="fill:#d3d2d2;fill-opacity:1;fill-rule:nonzero;stroke:none"
           d="m 2366.4,2526.6 c 0,62.13 0,124.26 0,186.38 0,56.56 -46.36,94.77 -100.42,94.77 -35.98,0 -71.95,0 -107.93,0 -46.27,0 -92.54,0 -138.8,0 -34.16,0 -68.29,3.38 -98.8,-15.56 -43.51,-27 -42.1,-74.94 -42.1,-119.3 0,-45.63 0,-91.28 0,-136.92 0,-3.16 0,-6.32 0,-9.48 -16.22,-6.76 -28.06,-22.68 -28.06,-41.19 0,-35.37 0,-70.75 0,-106.13 0,-20.71 14.5,-38.9 33.97,-43.91 0,-42.19 0,-84.4 0,-126.6 0,-4.75 0.75,-9.19 2.04,-13.36 -1.31,-4.17 -2.04,-8.49 -2.04,-12.81 0,-49.52 0,-99.05 0,-148.57 0,-5.3 0.9,-10.26 2.48,-14.84 l -0.39,-1.48 c -1.35,-4.28 -2.09,-9.02 -2.09,-14.26 0,-21.21 0,-42.43 0,-63.66 0,-24.37 20.04,-45.3 44.67,-45.3 1.29,0 2.58,0 3.88,0 0.62,-2 1.36,-3.97 2.21,-5.93 21.78,-49.52 43.55,-99.05 65.31,-148.58 6.07,-13.79 24.24,-22.21 38.48,-22.21 55.5,0 111,0 166.5,0 6.05,0 11.44,1.02 16.23,2.76 10.01,3.28 18.69,9.82 23.05,19.74 21.77,49.54 43.55,99.05 65.32,148.58 0.82,1.85 1.52,3.74 2.12,5.64 1.05,0 2.12,0 3.18,0 24.37,0 45.31,20.03 45.31,44.67 0,49.51 0,99.04 0,148.55 0,5.3 -0.92,10.27 -2.5,14.85 l 0.4,1.48 c 1.34,4.28 2.1,9.01 2.1,14.24 0,49.53 0,99.04 0,148.57 0,4.52 -0.7,8.78 -1.87,12.79 1.18,4.05 1.87,8.5 1.87,13.39 0,14.08 0,28.16 0,42.26 7.49,1.75 13.71,5.22 18.61,9.85 9.12,7.18 15.33,18.3 15.33,33.5 0,35.37 0,70.75 0,106.13 0,18.56 -11.63,35.1 -28.06,41.94" /><path
           inkscape:connector-curvature="0"
           id="path76"
           style="fill:#4f4c4c;fill-opacity:1;fill-rule:nonzero;stroke:none"
           d="M 2353.09,2378.86 H 1898.9 v 106.12 h 454.19 v -106.12" /><path
           inkscape:connector-curvature="0"
           id="path78"
           style="fill:#4f4c4c;fill-opacity:1;fill-rule:nonzero;stroke:none"
           d="m 2319.14,2293.24 -386.27,-84.9 v 148.6 h 386.27 v -63.7" /><path
           inkscape:connector-curvature="0"
           id="path80"
           style="fill:#4f4c4c;fill-opacity:1;fill-rule:nonzero;stroke:none"
           d="m 1932.87,2003.03 386.27,84.89 v -148.55 h -386.27 v 63.66" /><path
           inkscape:connector-curvature="0"
           id="path82"
           style="fill:#4f4c4c;fill-opacity:1;fill-rule:nonzero;stroke:none"
           d="m 2319.14,2118.49 -386.27,-84.89 v 148.57 l 386.27,84.9 v -148.58" /><path
           inkscape:connector-curvature="0"
           id="path84"
           style="fill:#4f4c4c;fill-opacity:1;fill-rule:nonzero;stroke:none"
           d="m 2209.25,1762.65 h -166.5 l -65.3,148.58 h 297.13 l -65.33,-148.58" /><path
           inkscape:connector-curvature="0"
           id="path86"
           style="fill:#4f4c4c;fill-opacity:1;fill-rule:nonzero;stroke:none"
           d="m 2325.03,2507.74 v 206.46 c 0,26.83 -21.74,48.57 -48.56,48.57 h -300.94 c -26.82,0 -48.56,-21.74 -48.56,-48.57 v -206.46 h 398.06" /><path
           inkscape:connector-curvature="0"
           id="path88"
           style="fill:#ffffff;fill-opacity:1;fill-rule:nonzero;stroke:none"
           d="m 2704.68,3159.92 c -67.22,66.6 -139.31,100.37 -214.27,100.37 -80.75,0 -143.86,-38.65 -181.57,-61.73 -8.21,-5.03 -16.69,-10.23 -20.69,-11.98 l -3.88,-1.66 -3.37,-2.55 c -0.73,-0.56 -75.98,-55.64 -154.52,-55.64 l -2.46,-0.02 c -77.45,0 -152.15,55.14 -152.83,55.66 l -3.37,2.55 -3.87,1.66 c -4,1.73 -12.49,6.94 -20.69,11.96 -37.73,23.1 -100.83,61.75 -181.57,61.75 -74.95,0 -147.04,-33.77 -214.26,-100.37 -148.74,-147.35 -30.33,-376.12 33.27,-499.01 13.8,-26.69 25.71,-49.71 31.47,-64.92 1.06,-2.87 2.15,-7.52 3.66,-13.37 12.31,-47.85 45.02,-175 169.56,-182.61 l 2.19,-0.08 c 70.79,0 95.86,72.99 99.24,111.61 l 0.12,3.09 c 0,6 -0.19,15.85 -0.48,28.32 -3.28,149.8 2.82,195.26 7.87,205.95 25.16,37.3 62.95,51.84 134.79,51.84 16.51,0 33.2,-0.7 49.68,-1.36 2.95,-0.13 5.88,-0.23 8.83,-0.37 l 0.02,-1.08 38.5,0.03 3.57,-0.02 35.6,0.1 v 1.01 c 2.7,0.11 5.38,0.22 8.08,0.33 16.48,0.66 33.17,1.36 49.67,1.36 71.85,0 109.65,-14.54 134.17,-50.77 5.7,-11.76 11.77,-57.22 8.5,-207.03 -0.27,-12.46 -0.48,-22.31 -0.48,-28.31 l 0.14,-3.09 c 3.35,-38.58 28.43,-111.61 99.23,-111.61 h 1.09 l 1.07,0.08 c 124.56,7.61 157.27,134.77 169.59,182.61 1.5,5.85 2.59,10.5 3.66,13.37 5.75,15.21 17.67,38.23 31.46,64.92 63.61,122.89 182,351.66 33.28,499.01" /><path
           inkscape:connector-curvature="0"
           id="path90"
           style="fill:#e9e9e9;fill-opacity:1;fill-rule:nonzero;stroke:none"
           d="m 1724.16,2589 c -1.31,5.23 -2.25,9.39 -3.16,11.95 -5,13.6 -15.33,34.19 -27.3,58.06 -55.15,109.9 -157.79,314.49 -28.85,446.25 58.28,59.57 120.78,89.76 185.78,89.76 7.71,0 15.21,-0.46 22.55,-1.25 -27.09,11.78 -59.15,21.05 -95.35,21.05 -64.98,0 -127.49,-30.2 -185.76,-89.76 -128.95,-131.77 -26.3,-336.36 28.84,-446.27 11.96,-23.86 22.31,-44.45 27.29,-58.06 0.92,-2.56 1.85,-6.72 3.16,-11.95 10.69,-42.8 39.05,-156.5 147.02,-163.31 l 1.89,-0.06 c 2.56,0 5.03,0.15 7.45,0.38 -56.78,36.08 -75.38,110.42 -83.56,143.21" /><path
           inkscape:connector-curvature="0"
           id="path92"
           style="fill:#e9e9e9;fill-opacity:1;fill-rule:nonzero;stroke:none"
           d="m 1968.43,3002.81 2.14,-0.85 c 67.76,-27.55 151.98,-6.42 152.82,-6.19 l 3.79,1.01 3.93,0.08 c 4.07,0.1 13.21,1.61 22.06,3.07 40.61,6.69 108.63,17.9 178.27,-10.43 6.17,-2.51 12.16,-5.35 18.09,-8.38 -24.22,25.28 -51.84,44.35 -82.75,56.91 -69.66,28.32 -137.66,17.12 -178.29,10.43 -8.84,-1.46 -17.99,-2.97 -22.05,-3.07 l -3.92,-0.07 -3.79,-1.02 c -0.83,-0.22 -85.07,-21.35 -152.83,6.2 l -2.14,0.84 c -2.92,1.19 -5.78,2.5 -8.61,3.85 18.99,-19.69 44.06,-40.49 73.28,-52.38" /><path
           inkscape:connector-curvature="0"
           id="path94"
           style="fill:#e9e9e7;fill-opacity:1;fill-rule:nonzero;stroke:none"
           d="m 2492.26,2542.52 -0.13,2.88 c 0,5.59 0.2,14.76 0.46,26.37 3.04,139.5 -2.61,181.83 -7.92,192.78 -20.34,30.05 -50.55,44.05 -104.19,46.75 10.31,-6.84 18.78,-15.47 26,-26.15 5.3,-10.94 10.97,-53.28 7.92,-192.79 -0.26,-11.6 -0.45,-20.77 -0.45,-26.35 l 0.13,-2.89 c 3.13,-35.93 26.47,-103.93 92.4,-103.93 h 1.02 l 1.02,0.07 c 6.68,0.41 13.06,1.23 19.19,2.35 -23.51,23.06 -33.48,58.32 -35.45,80.91" /></g></g></g></svg>