<?xml version="1.0" encoding="UTF-8" standalone="no"?>
<!-- Created with Inkscape (http://www.inkscape.org/) -->

<svg
   xmlns:dc="http://purl.org/dc/elements/1.1/"
   xmlns:cc="http://creativecommons.org/ns#"
   xmlns:rdf="http://www.w3.org/1999/02/22-rdf-syntax-ns#"
   xmlns:svg="http://www.w3.org/2000/svg"
   xmlns="http://www.w3.org/2000/svg"
   xmlns:sodipodi="http://sodipodi.sourceforge.net/DTD/sodipodi-0.dtd"
   xmlns:inkscape="http://www.inkscape.org/namespaces/inkscape"
   width="33.525177mm"
   height="33.526237mm"
   viewBox="0 0 33.525177 33.526237"
   version="1.1"
   id="svg1115"
   inkscape:version="0.92.5 (0.92.5+68)"
   sodipodi:docname="tooth4.svg">
  <defs
     id="defs1109" />
  <sodipodi:namedview
     id="base"
     pagecolor="#ffffff"
     bordercolor="#666666"
     borderopacity="1.0"
     inkscape:pageopacity="0.0"
     inkscape:pageshadow="2"
     inkscape:zoom="0.35"
     inkscape:cx="-673.78819"
     inkscape:cy="-156.64333"
     inkscape:document-units="mm"
     inkscape:current-layer="layer1"
     showgrid="false"
     fit-margin-top="0"
     fit-margin-left="0"
     fit-margin-right="0"
     fit-margin-bottom="0"
     inkscape:window-width="1920"
     inkscape:window-height="1029"
     inkscape:window-x="0"
     inkscape:window-y="25"
     inkscape:window-maximized="1" />
  <metadata
     id="metadata1112">
    <rdf:RDF>
      <cc:Work
         rdf:about="">
        <dc:format>image/svg+xml</dc:format>
        <dc:type
           rdf:resource="http://purl.org/dc/dcmitype/StillImage" />
        <dc:title></dc:title>
      </cc:Work>
    </rdf:RDF>
  </metadata>
  <g
     inkscape:label="Layer 1"
     inkscape:groupmode="layer"
     id="layer1"
     transform="translate(-49.005269,-73.861883)">
    <g
       transform="matrix(0.03527778,0,0,-0.03527778,38.730614,165.70705)"
       id="g1145">
      <path
         inkscape:connector-curvature="0"
         id="path24"
         style="fill:#20966e;fill-opacity:1;fill-rule:nonzero;stroke:none"
         d="m 766.398,2603.47 c -262.414,0 -475.148,-212.73 -475.148,-475.17 0,-131.2 53.164,-249.99 139.168,-335.99 l 671.992,671.98 c -85.98,86 -204.773,139.18 -336.012,139.18" />
      <path
         inkscape:connector-curvature="0"
         id="path28"
         style="fill:#d77b8f;fill-opacity:1;fill-rule:nonzero;stroke:none"
         d="m 1241.57,2128.3 c 0,-262.41 -212.72,-475.17 -475.144,-475.17 -262.403,0 -475.176,212.76 -475.176,475.17 0,262.44 212.773,475.17 475.176,475.17 262.424,0 475.144,-212.73 475.144,-475.17" />
      <path
         inkscape:connector-curvature="0"
         id="path64"
         style="fill:#daacb3;fill-opacity:1;fill-rule:nonzero;stroke:none"
         d="m 291.25,2128.32 v 0 c 0,262.44 212.734,475.17 475.148,475.17 131.239,0 250.032,-53.2 336.012,-139.18 v 0 c -85.99,85.98 -204.773,139.16 -335.984,139.16 v 0 c -0.024,0 -0.02,0 -0.028,0 -262.414,0 -475.148,-212.73 -475.148,-475.17" />
      <path
         inkscape:connector-curvature="0"
         id="path66"
         style="fill:#1d6f51;fill-opacity:1;fill-rule:nonzero;stroke:none"
         d="m 430.418,1792.31 c -3.609,3.61 -7.164,7.28 -10.656,11.01 -67.446,71.9 -112.75,164.79 -125.106,267.81 12.996,-108.36 62.457,-205.5 135.77,-278.81 l -0.008,-0.01 m -135.766,278.82 c -0.007,0.07 -0.011,0.13 -0.023,0.2 0.008,-0.06 0.019,-0.14 0.023,-0.2 m -0.043,0.39 -0.004,0.01 c 0.004,-0.02 0,0 0.004,-0.01 m -3.359,56.8 v 0 c 0,262.42 212.734,475.15 475.148,475.15 0.008,0 0.004,0 0.012,0 -262.387,0 -475.16,-212.73 -475.16,-475.17" />
      <path
         inkscape:connector-curvature="0"
         id="path68"
         style="fill:#bd5269;fill-opacity:1;fill-rule:nonzero;stroke:none"
         d="m 430.426,1792.32 c -73.313,73.31 -122.774,170.45 -135.77,278.81 h -0.004 c -0.004,0.06 -0.015,0.14 -0.023,0.2 -0.008,0.06 -0.012,0.12 -0.02,0.19 -0.004,0.01 0,-0.01 -0.004,0.01 -2.214,18.62 -3.355,37.57 -3.355,56.79 0,262.42 212.773,475.15 475.176,475.15 v 0 c 131.211,0 249.994,-53.18 335.974,-139.17 L 821.668,2183.57 H 601.449 v -108.59 h 111.633 -27.918 v -27.92 L 430.418,1792.31" />
      <path
         inkscape:connector-curvature="0"
         id="path116"
         style="fill:#c6dde7;fill-opacity:1;fill-rule:nonzero;stroke:none"
         d="m 601.449,2074.98 h 329.922 v 108.59 H 601.449 Z" />
      <path
         inkscape:connector-curvature="0"
         id="path118"
         style="fill:#96b7c5;fill-opacity:1;fill-rule:nonzero;stroke:none"
         d="m 848.469,1961.33 -39.961,16.1 c -3.34,1.36 -6.164,6.88 -6.828,9.75 -0.789,3.49 -0.672,7.73 1.148,10.98 2.289,4.14 7.508,6.19 12.438,7.67 7.867,2.35 16.562,3.42 22.847,8.32 3.555,2.78 7.164,6.59 9.055,10.32 2.055,4.1 0.504,7.83 0.504,11.87 v 38.64 h -79.285 -3.942 -79.281 v -38.64 c 0,-4.04 -1.57,-7.77 0.5,-11.87 1.875,-3.73 5.484,-7.54 9.039,-10.32 6.289,-4.9 14.985,-5.97 22.856,-8.32 4.929,-1.48 10.144,-3.53 12.441,-7.67 1.816,-3.25 1.938,-7.49 1.145,-10.98 -0.661,-2.87 -3.489,-8.39 -6.829,-9.75 l -39.957,-16.1 c -8.304,-3.34 -10.449,-13.05 -7.718,-19.51 1.355,-3.19 4.035,-7.21 7.203,-9.46 3.777,-2.68 10.16,-3.8 14.754,-5.29 4.965,-1.61 9.84,-3.42 14.781,-5.08 3.762,-1.25 7.465,-2.65 11.254,-3.85 5.82,-1.82 8.922,-3.07 11.812,-7.91 3.032,-5.04 4.004,-10.9 3.442,-16.47 -0.824,-8.22 -7.098,-14.55 -15.469,-18.87 -9.824,-5.06 -22.383,-9.65 -30.34,-16.68 -6.539,-5.76 -7.777,-16.01 -2.715,-22.62 6.934,-9.08 25.106,-9.61 35.395,-15.22 5.644,-3.08 10.234,-8.64 11.101,-14.22 0.715,-4.44 -0.117,-8.3 -2.398,-12.37 -3.77,-6.72 -12.766,-8.86 -20.344,-11.64 -10.832,-3.98 -23.476,-5.47 -24.64,-16.99 -0.887,-8.69 6.984,-15.28 14.523,-20.39 6.992,-4.72 14.324,-9.09 21.953,-13.15 7.352,-3.93 14.637,-7.95 22.063,-11.76 4.445,-2.29 9.906,-5.39 15.429,-6.49 v -0.47 l 1.973,0.24 1.969,-0.24 v 0.47 c 5.511,1.1 10.976,4.2 15.422,6.49 7.429,3.81 14.707,7.83 22.07,11.76 7.613,4.06 14.961,8.43 21.953,13.15 7.539,5.11 15.398,11.7 14.516,20.39 -1.164,11.52 -13.817,13.01 -24.645,16.99 -7.57,2.78 -16.562,4.92 -20.34,11.64 -2.269,4.07 -3.109,7.93 -2.402,12.37 0.867,5.58 5.457,11.14 11.113,14.22 10.281,5.61 28.457,6.14 35.395,15.22 5.058,6.61 3.808,16.86 -2.719,22.62 -7.969,7.03 -20.516,11.62 -30.344,16.68 -8.367,4.32 -14.648,10.65 -15.465,18.87 -0.558,5.57 0.399,11.43 3.438,16.47 2.894,4.84 6,6.09 11.812,7.91 3.797,1.2 7.493,2.6 11.25,3.85 4.946,1.66 9.817,3.47 14.786,5.08 4.589,1.49 10.968,2.61 14.75,5.29 3.171,2.25 5.836,6.27 7.207,9.46 2.73,6.46 0.593,16.17 -7.715,19.51" />
      <path
         inkscape:connector-curvature="0"
         id="path120"
         style="fill:#718894;fill-opacity:1;fill-rule:nonzero;stroke:none"
         d="m 768.387,1712.89 -1.969,0.24 -1.973,-0.24 v 0.47 c -5.523,1.1 -10.984,4.2 -15.429,6.49 -7.426,3.81 -14.711,7.83 -22.063,11.76 -7.629,4.06 -14.961,8.43 -21.953,13.15 -7.156,4.85 -14.613,11.04 -14.59,19.09 0,0.43 0.024,0.86 0.067,1.3 1.164,11.52 13.808,13.01 24.64,16.99 7.578,2.78 16.574,4.92 20.344,11.64 1.75,3.11 2.644,6.11 2.648,9.33 0,0.99 -0.082,2 -0.25,3.04 -0.867,5.58 -5.457,11.14 -11.101,14.22 -10.289,5.61 -28.461,6.14 -35.395,15.22 -2.097,2.74 -3.113,6.1 -3.121,9.51 -0.008,4.82 2.004,9.73 5.836,13.11 7.957,7.03 20.516,11.62 30.34,16.68 8.371,4.32 14.645,10.65 15.469,18.87 0.101,1 0.152,2.01 0.152,3.02 -0.008,4.63 -1.105,9.32 -3.594,13.45 -2.89,4.84 -5.992,6.09 -11.812,7.91 -3.789,1.2 -7.492,2.6 -11.254,3.85 -4.941,1.66 -9.816,3.47 -14.781,5.08 -4.594,1.49 -10.977,2.61 -14.754,5.29 -3.168,2.25 -5.848,6.27 -7.203,9.46 -0.735,1.74 -1.118,3.72 -1.121,5.74 -0.004,5.49 2.773,11.33 8.839,13.77 l 39.957,16.1 c 3.34,1.36 6.168,6.88 6.829,9.75 0.296,1.31 0.464,2.73 0.464,4.15 0,2.38 -0.472,4.8 -1.609,6.83 -2.297,4.14 -7.512,6.19 -12.441,7.67 -7.871,2.35 -16.567,3.42 -22.856,8.32 -3.555,2.78 -7.164,6.59 -9.039,10.32 -0.824,1.63 -1.07,3.21 -1.07,4.77 0.004,2.35 0.57,4.67 0.57,7.1 v 38.64 h 83.375 v -361.56 l -0.152,-0.06 v 0 -0.47" />
      <path
         inkscape:connector-curvature="0"
         id="path122"
         style="fill:#811051;fill-opacity:1;fill-rule:nonzero;stroke:none"
         d="m 848.469,1961.33 1.867,4.63 -39.961,16.11 -0.695,0.57 c -1.317,1.2 -2.965,4.62 -3.129,5.67 -0.211,0.93 -0.34,1.98 -0.34,3.01 -0.004,1.74 0.367,3.34 0.973,4.39 l 0.019,0.03 c 0.512,0.95 1.559,1.94 3.262,2.87 1.687,0.94 3.914,1.74 6.23,2.43 7.274,2.28 16.614,3.17 24.493,9.16 4,3.17 7.988,7.26 10.437,12.01 l 0.012,0.02 c 1.234,2.44 1.601,4.94 1.59,7.01 -0.039,3.15 -0.594,5.45 -0.559,7.09 v 38.65 c 0,1.33 -0.516,2.59 -1.461,3.53 -0.945,0.95 -2.199,1.47 -3.535,1.47 h -79.281 -3.95 -79.273 c -1.32,0 -2.605,-0.53 -3.539,-1.47 -0.93,-0.93 -1.461,-2.22 -1.461,-3.53 v -38.65 c 0.035,-1.63 -0.535,-3.93 -0.574,-7.11 -0.016,-2.06 0.355,-4.57 1.609,-7.01 2.43,-4.75 6.426,-8.84 10.414,-12 7.891,-6 17.235,-6.89 24.508,-9.17 2.316,-0.69 4.547,-1.49 6.23,-2.43 1.708,-0.93 2.754,-1.92 3.27,-2.87 0.609,-1.07 0.984,-2.68 0.98,-4.41 0,-1.02 -0.128,-2.09 -0.347,-3.07 l 0.008,0.04 c -0.125,-0.65 -0.848,-2.49 -1.758,-3.89 l -1.367,-1.77 -0.707,-0.58 -39.946,-16.1 c -4.07,-1.62 -7.179,-4.51 -9.125,-7.81 -1.953,-3.3 -2.843,-6.98 -2.847,-10.57 0,-2.65 0.488,-5.28 1.523,-7.71 1.727,-3.94 4.586,-8.44 8.91,-11.59 2.711,-1.9 5.672,-2.92 8.516,-3.8 2.832,-0.85 5.578,-1.51 7.586,-2.17 4.84,-1.57 9.695,-3.37 14.734,-5.06 3.653,-1.21 7.379,-2.62 11.34,-3.87 2.867,-0.9 4.723,-1.59 5.895,-2.33 1.171,-0.74 1.96,-1.47 3.132,-3.38 1.969,-3.27 2.879,-7.06 2.883,-10.92 l -0.129,-2.54 0.004,0.05 c -0.305,-2.96 -1.535,-5.59 -3.715,-8.13 -2.172,-2.53 -5.312,-4.86 -9.07,-6.8 -9.41,-4.91 -22.258,-9.43 -31.359,-17.37 -4.973,-4.4 -7.52,-10.64 -7.528,-16.83 0,-4.39 1.305,-8.87 4.157,-12.58 4.847,-6.16 12.117,-8.57 18.996,-10.67 6.918,-2 13.843,-3.6 17.968,-5.9 4.496,-2.36 8.145,-7.16 8.563,-10.6 l 0.183,-2.24 c -0.015,-2.29 -0.578,-4.32 -2.015,-6.93 -1.113,-2.02 -3.274,-3.69 -6.5,-5.2 -3.188,-1.51 -7.203,-2.72 -11.199,-4.18 -5.028,-1.87 -10.996,-3.21 -16.442,-5.88 -2.715,-1.35 -5.363,-3.09 -7.496,-5.64 -2.14,-2.54 -3.59,-5.89 -3.949,-9.65 l -0.098,-1.85 c 0.004,-5.63 2.633,-10.34 5.852,-14.01 3.246,-3.7 7.215,-6.64 10.937,-9.18 7.157,-4.83 14.641,-9.29 22.407,-13.42 7.308,-3.9 14.617,-7.94 22.128,-11.8 4.333,-2.2 10.102,-5.59 16.731,-6.95 l 0.98,4.91 h -5 v -0.47 c 0,-1.43 0.622,-2.8 1.688,-3.75 1.074,-0.94 2.508,-1.39 3.926,-1.21 l 1.355,0.17 1.363,-0.17 c 1.415,-0.18 2.856,0.27 3.926,1.21 1.071,0.95 1.688,2.32 1.688,3.75 v 0.47 h -4.996 l 0.98,-4.91 c 6.613,1.36 12.387,4.75 16.731,6.96 7.511,3.85 14.808,7.89 22.128,11.79 7.747,4.13 15.247,8.58 22.399,13.42 3.73,2.54 7.695,5.48 10.937,9.19 3.215,3.66 5.844,8.38 5.844,14.01 l -0.082,1.77 -0.008,0.07 c -0.359,3.77 -1.816,7.12 -3.953,9.65 -3.23,3.82 -7.484,5.84 -11.66,7.42 -4.203,1.57 -8.516,2.71 -12.281,4.1 -3.988,1.46 -8,2.67 -11.188,4.18 -3.226,1.51 -5.39,3.19 -6.519,5.22 -1.426,2.59 -1.996,4.64 -2.008,6.93 l 0.184,2.17 0.003,0.05 c 0.422,3.44 4.063,8.24 8.563,10.6 4.133,2.3 11.055,3.9 17.977,5.9 6.875,2.1 14.148,4.51 19.003,10.68 2.832,3.71 4.137,8.17 4.133,12.56 -0.008,6.2 -2.554,12.43 -7.511,16.84 -9.114,7.94 -21.95,12.46 -31.368,17.38 -3.754,1.93 -6.894,4.26 -9.066,6.79 -2.18,2.54 -3.41,5.17 -3.715,8.12 l -0.133,2.51 c 0.004,3.86 0.907,7.64 2.871,10.88 l 0.012,0.02 c 1.176,1.92 1.969,2.65 3.141,3.39 1.175,0.74 3.027,1.43 5.886,2.32 3.977,1.26 7.696,2.67 11.329,3.88 5.054,1.69 9.91,3.49 14.75,5.06 2.007,0.66 4.753,1.32 7.585,2.17 2.84,0.88 5.801,1.9 8.516,3.81 4.324,3.14 7.172,7.65 8.906,11.57 l 0.008,0.02 c 1.028,2.43 1.512,5.06 1.512,7.71 0,3.58 -0.891,7.26 -2.848,10.57 -1.937,3.29 -5.043,6.18 -9.121,7.81 l -1.859,-4.64 -1.867,-4.64 c 1.976,-0.81 3.293,-2.05 4.253,-3.64 0.946,-1.59 1.446,-3.56 1.446,-5.46 0,-1.41 -0.274,-2.76 -0.727,-3.82 l 0.012,0.02 c -1.004,-2.47 -3.488,-6.01 -5.5,-7.35 -1.074,-0.79 -3.191,-1.66 -5.633,-2.39 -2.449,-0.74 -5.187,-1.39 -7.773,-2.23 -5.098,-1.65 -9.989,-3.46 -14.832,-5.09 -3.871,-1.29 -7.543,-2.68 -11.164,-3.82 -2.95,-0.94 -5.555,-1.78 -8.11,-3.33 -2.558,-1.55 -4.765,-3.86 -6.488,-6.78 l 0.012,0.02 c -3.043,-5.03 -4.317,-10.65 -4.313,-16.06 0,-1.19 0.063,-2.35 0.18,-3.5 0.515,-5.26 2.832,-9.91 6.09,-13.66 3.265,-3.78 7.445,-6.77 12.062,-9.15 10.235,-5.21 22.492,-9.86 29.321,-15.99 2.66,-2.33 4.148,-5.9 4.14,-9.34 -0.004,-2.44 -0.723,-4.71 -2.082,-6.49 -2.082,-2.91 -7.367,-5.31 -13.883,-7.15 -6.472,-1.94 -13.777,-3.41 -19.937,-6.72 -6.797,-3.79 -12.336,-10.13 -13.656,-17.84 l 4.941,-0.77 -4.934,0.82 c -0.214,-1.29 -0.316,-2.57 -0.316,-3.81 -0.016,-4.19 1.227,-8.16 3.285,-11.82 2.656,-4.7 6.883,-7.45 10.988,-9.38 4.145,-1.94 8.414,-3.19 11.996,-4.52 5.801,-2.1 11.571,-3.49 15.45,-5.45 1.945,-0.96 3.351,-1.99 4.258,-3.09 0.898,-1.11 1.464,-2.26 1.683,-4.25 l 4.977,0.5 -4.981,-0.43 0.043,-0.9 c 0,-2.41 -1.09,-4.8 -3.379,-7.44 -2.258,-2.6 -5.582,-5.17 -9.004,-7.48 -6.828,-4.61 -14.023,-8.89 -21.504,-12.88 -7.406,-3.95 -14.66,-7.96 -21.996,-11.72 -4.558,-2.38 -9.722,-5.19 -14.121,-6.04 -2.343,-0.47 -4.015,-2.52 -4.015,-4.9 v -0.47 h 5 l 0.609,4.96 -1.973,0.24 h -1.226 l -1.973,-0.24 0.613,-4.96 h 5 v 0.47 c 0,2.38 -1.679,4.43 -4.019,4.9 -4.414,0.85 -9.567,3.65 -14.117,6.04 -7.344,3.76 -14.602,7.77 -21.996,11.72 -7.496,3.99 -14.676,8.27 -21.512,12.89 -3.418,2.3 -6.75,4.87 -9.012,7.47 -2.289,2.64 -3.383,5.03 -3.379,7.43 l 0.047,0.83 c 0.223,2 0.785,3.15 1.68,4.26 1.328,1.64 3.926,3.15 7.492,4.47 3.535,1.34 7.855,2.48 12.215,4.07 3.582,1.33 7.855,2.58 12,4.52 4.105,1.93 8.332,4.68 10.98,9.37 2.059,3.66 3.297,7.62 3.282,11.81 0.003,1.25 -0.102,2.52 -0.305,3.79 -1.317,7.7 -6.852,14.04 -13.649,17.83 -6.156,3.31 -13.46,4.78 -19.937,6.72 -6.512,1.84 -11.797,4.24 -13.875,7.15 -1.383,1.79 -2.098,4.06 -2.098,6.5 -0.008,3.43 1.473,7 4.141,9.33 6.824,6.13 19.094,10.78 29.328,15.99 4.617,2.38 8.797,5.37 12.059,9.15 3.257,3.75 5.578,8.4 6.093,13.66 l 0.008,0.04 c 0.098,1.11 0.164,2.26 0.164,3.45 0.004,5.42 -1.277,11.03 -4.304,16.06 -1.711,2.91 -3.914,5.22 -6.473,6.77 -2.555,1.55 -5.16,2.39 -8.125,3.33 -3.606,1.14 -7.289,2.53 -11.172,3.82 -4.828,1.63 -9.719,3.44 -14.816,5.09 -2.586,0.84 -5.328,1.49 -7.778,2.23 -2.441,0.73 -4.558,1.6 -5.625,2.39 -2.019,1.34 -4.511,4.89 -5.5,7.34 -0.453,1.06 -0.726,2.4 -0.726,3.8 0,1.9 0.5,3.88 1.449,5.46 0.965,1.6 2.281,2.84 4.262,3.65 l 39.961,16.1 c 3.382,1.47 5.222,3.93 6.777,6.28 1.504,2.42 2.523,4.78 3.055,7 l 0.007,0.04 c 0.36,1.63 0.579,3.39 0.579,5.22 -0.004,3.02 -0.571,6.26 -2.239,9.27 -1.769,3.18 -4.476,5.28 -7.183,6.78 -2.731,1.49 -5.575,2.45 -8.192,3.24 -8.465,2.43 -16.515,3.66 -21.211,7.47 -3.109,2.4 -6.336,5.93 -7.648,8.63 -0.41,0.84 -0.524,1.46 -0.539,2.5 -0.043,1.54 0.535,3.89 0.574,7.11 v 33.65 h 74.277 3.95 74.277 l 0.004,-33.65 c 0.035,-3.19 0.598,-5.53 0.558,-7.09 -0.011,-1.05 -0.132,-1.7 -0.535,-2.53 l 0.012,0.02 c -1.328,-2.71 -4.559,-6.24 -7.676,-8.64 -4.687,-3.81 -12.734,-5.04 -21.199,-7.47 -2.613,-0.79 -5.457,-1.75 -8.187,-3.24 -2.707,-1.5 -5.418,-3.6 -7.196,-6.8 l 0.02,0.04 c -1.688,-3.02 -2.25,-6.27 -2.254,-9.3 0,-1.81 0.207,-3.58 0.59,-5.25 0.535,-2.22 1.55,-4.58 3.054,-7 1.555,-2.35 3.395,-4.81 6.762,-6.27 l 39.977,-16.11 1.871,4.64" />
      <path
         inkscape:connector-curvature="0"
         id="path124"
         style="fill:#96b7c5;fill-opacity:1;fill-rule:nonzero;stroke:none"
         d="M 723.906,2074.98 H 601.449 v 108.59 h 122.457 v -108.59" />
      <path
         inkscape:connector-curvature="0"
         id="path126"
         style="fill:#811051;fill-opacity:1;fill-rule:nonzero;stroke:none"
         d="m 931.371,2074.98 v 5 H 606.445 v 98.59 h 319.926 v -103.59 h 5 v 5 -5 h 5 v 108.59 c 0,1.33 -0.519,2.59 -1.465,3.53 -0.945,0.95 -2.199,1.47 -3.535,1.47 H 601.449 c -1.316,0 -2.605,-0.54 -3.535,-1.47 -0.934,-0.93 -1.465,-2.22 -1.465,-3.53 v -108.59 c 0,-1.34 0.52,-2.59 1.465,-3.54 0.941,-0.94 2.199,-1.46 3.535,-1.46 h 329.922 c 1.336,0 2.59,0.52 3.535,1.46 0.946,0.95 1.465,2.2 1.465,3.54 h -5" />
      <path
         inkscape:connector-curvature="0"
         id="path128"
         style="fill:#f2ead9;fill-opacity:1;fill-rule:nonzero;stroke:none"
         d="m 543.621,2177.37 c -75.066,110.11 -30.016,235.23 -30.016,235.23 20.122,52.31 59.114,91.12 116.454,95.8 49.218,4.01 89.707,-35.35 136.359,-37.97 46.633,2.62 87.129,41.98 136.352,37.97 57.335,-4.68 96.332,-43.49 116.45,-95.8 0,0 45.05,-125.12 -30.021,-235.23 0,0 -195.847,-87.69 -445.578,0" />
      <path
         inkscape:connector-curvature="0"
         id="path130"
         style="fill:#efc6cb;fill-opacity:1;fill-rule:nonzero;stroke:none"
         d="m 542.883,2168.73 c 15.176,-7.21 30.933,-13.21 47.097,-18.09 6.348,24.03 17.852,46.2 37.333,63.84 -9.176,6.29 -19.778,10.4 -28.418,17.42 -9.715,7.89 -16.317,18.28 -20.957,29.87 -10.887,27.17 -18.274,56.32 -17.168,85.78 1.652,43.21 15.828,90.36 61.449,104.63 44.476,13.93 85.816,-3.76 127.586,-17.74 26.968,-9.01 56.968,-17.03 85.578,-12.05 19.961,3.48 41.648,12.57 43.496,34.44 -18.918,-9.88 -43.984,-8.7 -64.168,-5.12 -16.43,2.91 -35.063,7.92 -48.598,18.75 -46.523,2.78 -86.941,41.94 -136.054,37.94 -57.34,-4.68 -96.332,-43.49 -116.454,-95.8 0,0 -45.05,-125.12 30.016,-235.23 0,0 -0.32,-3.16 -0.738,-8.64" />
      <path
         inkscape:connector-curvature="0"
         id="path132"
         style="fill:#efc6cb;fill-opacity:1;fill-rule:nonzero;stroke:none"
         d="m 937.129,2166.62 c 2.043,-4.45 3.816,-8.99 5.473,-13.55 15.976,4.42 31.855,9.54 47.355,15.53 -0.441,5.56 -0.758,8.77 -0.758,8.77 23.801,34.91 35.511,71.31 40.421,104.78 -1.18,-2.9 -2.5,-5.75 -3.99,-8.53 -11.36,-21.07 -28.528,-37.59 -48.665,-50.33 -14.188,-8.94 -29.113,-16.53 -44.152,-23.93 -3.45,-1.71 -6.907,-3.39 -10.352,-5.1 -3.352,-1.67 0.078,-2.82 2.477,-6.39 4.515,-6.8 8.777,-13.81 12.191,-21.25" />
      <path
         inkscape:connector-curvature="0"
         id="path134"
         style="fill:#811051;fill-opacity:1;fill-rule:nonzero;stroke:none"
         d="m 543.621,2177.37 4.133,2.82 c -33.414,49.01 -42.555,101.07 -42.563,143.46 0,25.43 3.301,47.33 6.598,62.84 1.645,7.75 3.293,13.9 4.516,18.09 0.613,2.09 1.121,3.7 1.472,4.77 0.352,1.07 0.532,1.56 0.528,1.56 l -4.7,1.69 4.665,-1.79 c 9.82,25.54 24.187,47.59 42.878,63.77 18.704,16.18 41.68,26.56 69.317,28.83 2.246,0.19 4.476,0.27 6.687,0.28 21.7,0.02 42.266,-8.51 63.243,-17.77 20.957,-9.2 42.261,-19.13 65.738,-20.48 h 0.562 c 23.469,1.35 44.766,11.28 65.723,20.48 20.973,9.26 41.547,17.79 63.25,17.77 2.215,0 4.437,-0.09 6.687,-0.28 27.645,-2.27 50.618,-12.65 69.321,-28.83 18.691,-16.18 33.054,-38.23 42.884,-63.77 l 4.66,1.79 -4.7,-1.69 0.12,-0.36 c 1.37,-3.94 12.99,-39.22 12.98,-86.89 -0.01,-42.39 -9.15,-94.46 -42.554,-143.47 l 4.133,-2.82 -2.008,4.58 -1.035,-0.44 c -10.664,-4.48 -102.347,-41.28 -225.117,-41.27 -65.488,0 -139.801,10.45 -215.508,41.75 l -1.91,-4.62 4.133,2.82 -4.133,-2.82 -1.91,-4.62 c 77.129,-31.89 152.785,-42.51 219.328,-42.51 133.086,0.02 229.777,42.4 230.168,42.55 l 2.121,1.77 c 34.822,51.08 44.302,105.32 44.292,149.1 -0.01,52.58 -13.58,90.29 -13.69,90.64 l -0.04,0.1 c -10.3,26.77 -25.492,50.27 -45.663,67.74 -20.161,17.48 -45.352,28.83 -75.051,31.24 -2.528,0.21 -5.035,0.31 -7.508,0.31 -24.367,-0.03 -46.234,-9.38 -67.277,-18.62 -21.063,-9.3 -41.352,-18.5 -62.254,-19.65 l 0.281,-4.99 0.277,4.99 c -20.918,1.15 -41.211,10.35 -62.269,19.65 -21.047,9.24 -42.91,18.59 -67.274,18.61 -2.476,0.01 -4.98,-0.09 -7.504,-0.3 -29.699,-2.41 -54.89,-13.76 -75.046,-31.24 -20.176,-17.47 -35.368,-40.97 -45.664,-67.74 l -0.04,-0.1 c -0.117,-0.35 -13.695,-38.06 -13.703,-90.65 -0.007,-43.78 9.469,-98.01 44.293,-149.1 0.547,-0.8 1.321,-1.43 2.223,-1.8 l 1.91,4.62" />
      <path
         inkscape:connector-curvature="0"
         id="path136"
         style="fill:#811051;fill-opacity:1;fill-rule:nonzero;stroke:none"
         d="m 736.176,2471.45 c 0.082,-0.02 16.738,-5.94 38.801,-11.88 22.097,-5.92 49.48,-11.9 71.625,-11.93 7.625,0.01 14.66,0.71 20.8,2.54 6.106,1.82 11.5,4.85 15.067,9.79 1.609,2.24 1.101,5.36 -1.137,6.97 -2.238,1.62 -5.363,1.11 -6.973,-1.13 -1.812,-2.53 -5.015,-4.62 -9.816,-6.05 -4.77,-1.43 -10.953,-2.12 -17.941,-2.12 -20.391,-0.02 -47.379,5.75 -69.028,11.59 -10.84,2.92 -20.371,5.83 -27.187,8.02 -3.407,1.09 -6.133,2 -8,2.64 -1.867,0.63 -2.86,0.99 -2.864,0.99 -2.601,0.92 -5.46,-0.44 -6.382,-3.04 -0.926,-2.6 0.437,-5.46 3.039,-6.39" />
    </g>
  </g>
</svg>
