<?xml version="1.0" encoding="UTF-8" standalone="no"?>
<!-- Created with Inkscape (http://www.inkscape.org/) -->

<svg
   xmlns:dc="http://purl.org/dc/elements/1.1/"
   xmlns:cc="http://creativecommons.org/ns#"
   xmlns:rdf="http://www.w3.org/1999/02/22-rdf-syntax-ns#"
   xmlns:svg="http://www.w3.org/2000/svg"
   xmlns="http://www.w3.org/2000/svg"
   xmlns:sodipodi="http://sodipodi.sourceforge.net/DTD/sodipodi-0.dtd"
   xmlns:inkscape="http://www.inkscape.org/namespaces/inkscape"
   width="33.525177mm"
   height="33.526237mm"
   viewBox="0 0 33.525177 33.526237"
   version="1.1"
   id="svg1115"
   inkscape:version="0.92.5 (0.92.5+68)"
   sodipodi:docname="tooth7.svg">
  <defs
     id="defs1109" />
  <sodipodi:namedview
     id="base"
     pagecolor="#ffffff"
     bordercolor="#666666"
     borderopacity="1.0"
     inkscape:pageopacity="0.0"
     inkscape:pageshadow="2"
     inkscape:zoom="0.35"
     inkscape:cx="-673.78819"
     inkscape:cy="-156.64333"
     inkscape:document-units="mm"
     inkscape:current-layer="layer1"
     showgrid="false"
     fit-margin-top="0"
     fit-margin-left="0"
     fit-margin-right="0"
     fit-margin-bottom="0"
     inkscape:window-width="1920"
     inkscape:window-height="1029"
     inkscape:window-x="0"
     inkscape:window-y="25"
     inkscape:window-maximized="1" />
  <metadata
     id="metadata1112">
    <rdf:RDF>
      <cc:Work
         rdf:about="">
        <dc:format>image/svg+xml</dc:format>
        <dc:type
           rdf:resource="http://purl.org/dc/dcmitype/StillImage" />
        <dc:title></dc:title>
      </cc:Work>
    </rdf:RDF>
  </metadata>
  <g
     inkscape:label="Layer 1"
     inkscape:groupmode="layer"
     id="layer1"
     transform="translate(-49.005269,-73.861883)">
    <g
       transform="matrix(0.03527778,0,0,-0.03527778,38.315254,121.15774)"
       id="g1187">
      <path
         inkscape:connector-curvature="0"
         id="path34"
         style="fill:#bad6eb;fill-opacity:1;fill-rule:nonzero;stroke:none"
         d="m 1253.36,865.5 c 0,-262.449 -212.74,-475.18 -475.157,-475.18 -262.441,0 -475.195,212.731 -475.195,475.18 0,262.42 212.754,475.17 475.195,475.17 262.417,0 475.157,-212.75 475.157,-475.17" />
      <path
         inkscape:connector-curvature="0"
         id="path60"
         style="fill:#d2dfe9;fill-opacity:1;fill-rule:nonzero;stroke:none"
         d="m 303.066,858.031 c -0.003,0.078 -0.003,0.16 -0.003,0.239 0,-0.079 0,-0.161 0.003,-0.239 m -0.031,2.11 c 0,0.289 -0.004,0.57 -0.008,0.859 0.004,-0.289 0.008,-0.57 0.008,-0.859 m -0.027,5.359 c 0,262.46 212.726,475.17 475.156,475.17 0.008,0 0.012,0 0.02,0 -262.422,0 -475.176,-212.75 -475.176,-475.17" />
      <path
         inkscape:connector-curvature="0"
         id="path62"
         style="fill:#a2c7e3;fill-opacity:1;fill-rule:nonzero;stroke:none"
         d="m 442.188,529.5 c -84.364,84.359 -137.149,200.281 -139.122,328.531 -0.003,0.078 -0.003,0.16 -0.003,0.239 -0.012,0.621 -0.02,1.25 -0.028,1.871 0,0.289 -0.004,0.57 -0.008,0.859 -0.011,1.488 -0.019,3 -0.019,4.5 v 0 0 c 0,262.42 212.754,475.17 475.195,475.17 131.184,-0.01 249.997,-53.19 335.977,-139.18 L 442.188,529.5" />
      <path
         inkscape:connector-curvature="0"
         id="path180"
         style="fill:#f2ead9;fill-opacity:1;fill-rule:nonzero;stroke:none"
         d="m 779.672,744.359 c 1.805,-0.019 3.605,-0.027 5.41,-0.027 3.273,0.008 6.563,0.027 9.844,-0.191 121.972,-8.102 106.219,-245.153 106.219,-245.153 5.441,-59.527 56.312,-36.476 56.312,-36.476 122.033,87.316 91.103,382.629 91.103,382.629 91.1,133.629 36.44,285.459 36.44,285.459 -24.42,63.49 -71.75,110.58 -141.344,116.26 -59.726,4.87 -108.859,-42.9 -165.468,-46.07 -56.629,3.17 -105.75,50.94 -165.477,46.07 -69.59,-5.68 -116.91,-52.77 -141.328,-116.26 -0.012,0 -54.688,-151.83 36.43,-285.459 0,0 -30.922,-295.313 91.113,-382.629 0,0 50.844,-23.051 56.304,36.476 0,0 -15.761,237.051 106.219,245.153 6.055,0.418 12.149,0.281 18.223,0.218" />
      <path
         inkscape:connector-curvature="0"
         id="path182"
         style="fill:#eeb985;fill-opacity:1;fill-rule:nonzero;stroke:none"
         d="m 703.676,717.961 c -2.211,-1.09 -4.406,-2.199 -6.524,-3.461 -34.609,-20.621 -39.316,-56.852 -48.222,-93.051 -5.047,-20.429 -22.403,-93.328 -55.946,-60.199 -19.589,19.359 -24.707,51.09 -28.644,77.27 -4.277,28.582 -7.84,57.628 -8.996,86.539 -2.43,59.929 6.683,123.07 52.715,165.089 -11.051,7.672 -23.797,12.653 -34.196,21.161 -11.679,9.582 -19.64,22.191 -25.211,36.261 -13.109,32.969 -22.004,68.34 -20.664,104.08 1.977,52.46 19.039,109.66 73.922,126.99 53.524,16.91 103.262,-4.57 153.535,-21.52 32.43,-10.95 68.535,-20.68 102.957,-14.62 24.004,4.21 50.098,15.22 52.321,41.77 -22.762,-11.98 -52.926,-10.55 -77.192,-6.22 -19.765,3.54 -42.199,9.61 -58.488,22.77 -55.973,3.37 -104.605,50.9 -163.691,46.04 -68.985,-5.68 -115.907,-52.77 -140.118,-116.26 0,0 -54.203,-151.83 36.125,-285.459 0,0 -30.664,-295.313 90.321,-382.629 0,0 50.429,-23.051 55.84,36.476 0,0 -10.262,155.59 50.156,218.973" />
      <path
         inkscape:connector-curvature="0"
         id="path184"
         style="fill:#eeb985;fill-opacity:1;fill-rule:nonzero;stroke:none"
         d="m 1097.61,972.281 c -1.44,-3.492 -3.03,-6.961 -4.85,-10.34 -13.8,-25.582 -34.61,-45.632 -59.06,-61.062 -17.21,-10.891 -35.317,-20.09 -53.567,-29.047 -4.192,-2.062 -8.391,-4.141 -12.567,-6.211 -4.066,-2.019 0.106,-3.422 2.985,-7.762 5.508,-8.238 10.683,-16.75 14.816,-25.769 15.763,-34.442 21.613,-71.649 23.453,-109.231 1.98,-40.187 5.46,-82.711 -2.66,-122.371 -3.84,-18.816 -9.711,-36.777 -18.418,-53.906 C 982.535,536.34 976.266,524.25 966.117,518 c -8.476,-5.219 -21.512,-8.898 -30.066,-1.418 -8.883,7.758 -9.602,19.438 -11.035,30.477 -3.34,25.863 -8.262,52.203 -14.149,77.613 -5.844,25.187 -13.449,52.887 -30.867,72.797 -8.598,9.851 -18.547,16.422 -29.379,20.383 60.848,-63.454 50.524,-218.864 50.524,-218.864 5.441,-59.527 56.312,-36.476 56.312,-36.476 122.033,87.316 91.103,382.629 91.103,382.629 28.87,42.359 43.09,86.539 49.05,127.14" />
      <path
         inkscape:connector-curvature="0"
         id="path186"
         style="fill:#eeb985;fill-opacity:1;fill-rule:nonzero;stroke:none"
         d="m 484.613,1043.38 c 27.61,8.61 53.235,-15.56 52.219,-60.79 -0.695,-30.149 3.641,-40.86 11.906,-70.86 8.196,-29.73 61.16,-64.589 100.758,-60.949 27.266,2.481 42.414,34.11 68.918,34.778 18.141,0.48 31.941,-12.637 42.266,-26.227 17.293,-22.75 29.039,-52.992 51.629,-71.211 14.015,-11.32 30.433,-12.371 45.976,-2.859 23.399,14.34 18.903,39.289 19.684,62.91 0.601,18.508 6.109,30.598 18.285,44.777 4.238,4.91 12.051,14.789 20.031,11.813 11.465,-4.25 17.41,-14.524 31.227,-14.571 19.543,-0.043 43.91,2.598 61.818,11.547 25.65,12.762 23.25,39.461 26.57,64.203 2.27,16.668 5.73,33.7 12.59,49.139 4.6,10.38 8.72,26.71 17.8,34.52 9.29,7.96 20.11,14.61 31.6,19.86 -4.69,37.16 -13.28,61.06 -13.28,61.06 -24.4,63.47 -71.7,110.53 -141.247,116.21 -59.695,4.86 -108.797,-42.89 -165.371,-46.06 -56.582,3.17 -105.687,50.92 -165.379,46.06 -69.543,-5.68 -116.847,-52.74 -141.25,-116.19 0,0 -13.906,-38.74 -15.976,-94.26 8.847,-0.18 19.347,4.01 29.226,7.1" />
      <path
         inkscape:connector-curvature="0"
         id="path188"
         style="fill:#811051;fill-opacity:1;fill-rule:nonzero;stroke:none"
         d="m 779.672,744.359 -0.055,-5 c 1.821,-0.019 3.641,-0.027 5.465,-0.027 l 2.34,0.008 c 2.457,0 4.848,-0.031 7.156,-0.192 22.934,-1.558 40.328,-11.41 54.238,-26.66 20.829,-22.84 33.079,-58.218 39.813,-93.699 6.777,-35.449 8.176,-70.898 8.172,-93.848 0,-7.91 -0.164,-14.332 -0.324,-18.769 -0.164,-4.442 -0.325,-6.84 -0.325,-6.852 l 0.008,-0.781 c 1.59,-17.559 7.11,-29.168 14.875,-36.258 7.766,-7.09 17.231,-9.179 25.356,-9.16 12.64,0.039 22.773,4.699 23.125,4.828 l 0.847,0.492 c 42.057,30.18 65.927,83.2 79.627,140.137 13.66,56.992 17.06,118.211 17.06,165.481 0,47.921 -3.51,81.48 -3.52,81.601 l -4.97,-0.519 4.13,-2.813 c 42.12,61.774 53.58,127.363 53.57,180.352 -0.01,63.62 -16.44,109.27 -16.55,109.62 l -0.04,0.1 c -12.45,32.36 -30.8,60.72 -55.13,81.79 -24.31,21.07 -54.649,34.75 -90.477,37.66 -3.028,0.24 -6.028,0.36 -9,0.36 -29.286,-0.02 -55.684,-11.28 -81.219,-22.5 -25.547,-11.28 -50.285,-22.52 -75.938,-23.93 l 0.282,-4.99 0.281,4.99 c -25.668,1.41 -50.41,12.65 -75.957,23.93 -25.535,11.22 -51.93,22.48 -81.211,22.5 -2.973,0 -5.981,-0.11 -9.004,-0.36 -35.82,-2.91 -66.156,-16.59 -90.465,-37.66 -24.324,-21.07 -42.668,-49.43 -55.117,-81.79 l -0.039,-0.1 c -0.121,-0.35 -16.567,-46.02 -16.574,-109.64 -0.008,-52.988 11.453,-118.558 53.582,-180.332 l 4.129,2.813 -4.973,0.519 c -0.012,-0.121 -3.527,-33.68 -3.527,-81.578 0.003,-47.281 3.402,-108.492 17.07,-165.492 13.695,-56.942 37.57,-109.969 79.633,-140.149 l 0.843,-0.492 c 0.356,-0.129 10.477,-4.789 23.118,-4.828 8.121,-0.019 17.586,2.07 25.347,9.16 7.766,7.09 13.289,18.699 14.883,36.25 l 0.012,0.789 c 0,0.012 -0.164,2.41 -0.324,6.852 -0.168,4.437 -0.332,10.867 -0.332,18.777 -0.016,30.59 2.511,83.442 16.859,128.832 7.156,22.699 17.262,43.481 31.129,58.719 13.914,15.238 31.312,25.09 54.23,26.648 3.168,0.223 6.391,0.282 9.668,0.282 2.688,0 5.41,-0.039 8.168,-0.071 l 0.055,5 0.055,5 c -2.731,0.032 -5.493,0.071 -8.278,0.071 -3.406,0 -6.855,-0.059 -10.344,-0.301 -25.539,-1.66 -45.738,-13.098 -60.953,-29.91 -22.863,-25.231 -35.257,-62.149 -42.242,-98.539 -6.945,-36.399 -8.344,-72.371 -8.347,-95.731 0,-16.097 0.671,-26.199 0.675,-26.289 l 4.992,0.328 -4.98,0.461 c -1.488,-16 -6.25,-24.828 -11.672,-29.777 -5.426,-4.961 -12.047,-6.531 -18.601,-6.551 -5.043,-0.012 -9.887,0.988 -13.418,2 -1.762,0.5 -3.2,1.008 -4.172,1.379 l -1.094,0.43 -0.305,0.129 -2.062,-4.547 2.906,4.058 c -38.934,27.782 -62.367,78.512 -75.727,134.352 -13.39,55.789 -16.8,116.379 -16.796,163.16 0,23.707 0.871,43.867 1.742,58.098 0.437,7.109 0.871,12.742 1.195,16.582 0.324,3.84 0.535,5.859 0.535,5.859 0.125,1.168 -0.179,2.367 -0.84,3.34 -40.714,59.699 -51.836,123.109 -51.843,174.699 0,30.95 4.019,57.6 8.031,76.47 2.004,9.43 4.008,16.92 5.504,22.03 0.746,2.55 1.367,4.51 1.797,5.82 0.433,1.32 0.656,1.93 0.656,1.93 l -4.703,1.69 4.664,-1.79 c 11.973,31.12 29.496,58.05 52.332,77.82 22.855,19.77 50.973,32.48 84.734,35.25 2.742,0.23 5.473,0.33 8.188,0.33 26.617,0.03 51.719,-10.42 77.179,-21.65 25.45,-11.18 51.2,-23.15 79.426,-24.76 h 0.563 c 28.215,1.61 53.961,13.58 79.406,24.76 25.461,11.24 50.566,21.68 77.188,21.65 2.703,0 5.433,-0.11 8.187,-0.33 33.762,-2.77 61.88,-15.48 84.74,-35.25 22.84,-19.77 40.37,-46.7 52.35,-77.82 l 4.66,1.79 -4.7,-1.69 c 0,0 0.22,-0.62 0.65,-1.93 3.01,-9.16 15.32,-50.15 15.31,-104.3 -0.01,-51.59 -11.13,-115.008 -51.83,-174.719 -0.67,-0.973 -0.97,-2.172 -0.84,-3.34 0,0 0.21,-2.019 0.53,-5.859 0.98,-11.532 2.94,-39.133 2.94,-74.703 0,-46.778 -3.41,-107.368 -16.8,-163.149 -13.36,-55.84 -36.787,-106.57 -75.713,-134.34 l 2.91,-4.058 -2.062,4.547 -0.305,-0.129 c -1.66,-0.711 -9.863,-3.84 -18.699,-3.809 -6.563,0.02 -13.184,1.59 -18.61,6.551 -5.422,4.949 -10.179,13.777 -11.66,29.777 l -4.976,-0.461 4.984,-0.328 c 0.008,0.09 0.672,10.192 0.672,26.281 -0.016,31.149 -2.461,84.688 -17.321,131.848 -7.449,23.57 -18.003,45.621 -33.261,62.43 -15.219,16.812 -35.414,28.25 -60.961,29.91 -2.68,0.18 -5.301,0.211 -7.836,0.211 l -2.356,-0.008 c -1.773,0 -3.558,0.008 -5.339,0.027 l -0.055,-5" />
      <path
         inkscape:connector-curvature="0"
         id="path190"
         style="fill:#811051;fill-opacity:1;fill-rule:nonzero;stroke:none"
         d="m 741.855,1203.04 c 0.083,-0.03 20.27,-7.2 47.004,-14.4 26.766,-7.18 59.957,-14.43 86.641,-14.45 9.184,0 17.633,0.85 24.938,3.03 7.269,2.17 13.582,5.75 17.726,11.49 1.609,2.24 1.106,5.36 -1.137,6.98 -2.242,1.61 -5.367,1.1 -6.976,-1.14 -2.387,-3.33 -6.508,-5.97 -12.477,-7.75 -5.929,-1.78 -13.523,-2.62 -22.074,-2.61 -24.93,-0.02 -57.723,7.01 -84.039,14.11 -13.176,3.54 -24.762,7.09 -33.039,9.75 -4.141,1.33 -7.453,2.44 -9.731,3.21 -2.273,0.77 -3.484,1.2 -3.488,1.2 -2.601,0.93 -5.461,-0.43 -6.387,-3.04 -0.921,-2.6 0.438,-5.46 3.043,-6.38" />
    </g>
  </g>
</svg>
