<?xml version="1.0" encoding="UTF-8" standalone="no"?>
<!-- Created with Inkscape (http://www.inkscape.org/) -->

<svg
   xmlns:dc="http://purl.org/dc/elements/1.1/"
   xmlns:cc="http://creativecommons.org/ns#"
   xmlns:rdf="http://www.w3.org/1999/02/22-rdf-syntax-ns#"
   xmlns:svg="http://www.w3.org/2000/svg"
   xmlns="http://www.w3.org/2000/svg"
   xmlns:sodipodi="http://sodipodi.sourceforge.net/DTD/sodipodi-0.dtd"
   xmlns:inkscape="http://www.inkscape.org/namespaces/inkscape"
   width="33.525177mm"
   height="33.526237mm"
   viewBox="0 0 33.525177 33.526237"
   version="1.1"
   id="svg1115"
   inkscape:version="0.92.5 (0.92.5+68)"
   sodipodi:docname="tooth6.svg">
  <defs
     id="defs1109" />
  <sodipodi:namedview
     id="base"
     pagecolor="#ffffff"
     bordercolor="#666666"
     borderopacity="1.0"
     inkscape:pageopacity="0.0"
     inkscape:pageshadow="2"
     inkscape:zoom="0.35"
     inkscape:cx="-673.78819"
     inkscape:cy="-156.64333"
     inkscape:document-units="mm"
     inkscape:current-layer="layer1"
     showgrid="false"
     fit-margin-top="0"
     fit-margin-left="0"
     fit-margin-right="0"
     fit-margin-bottom="0"
     inkscape:window-width="1920"
     inkscape:window-height="1029"
     inkscape:window-x="0"
     inkscape:window-y="25"
     inkscape:window-maximized="1" />
  <metadata
     id="metadata1112">
    <rdf:RDF>
      <cc:Work
         rdf:about="">
        <dc:format>image/svg+xml</dc:format>
        <dc:type
           rdf:resource="http://purl.org/dc/dcmitype/StillImage" />
        <dc:title></dc:title>
      </cc:Work>
    </rdf:RDF>
  </metadata>
  <g
     inkscape:label="Layer 1"
     inkscape:groupmode="layer"
     id="layer1"
     transform="translate(-49.005269,-73.861883)">
    <g
       transform="matrix(0.03527778,0,0,-0.03527778,-56.781153,165.7067)"
       id="g1176">
      <path
         inkscape:connector-curvature="0"
         id="path32"
         style="fill:#62cbd9;fill-opacity:1;fill-rule:nonzero;stroke:none"
         d="m 3949,2128.3 c 0,-262.41 -212.74,-475.17 -475.17,-475.17 -262.44,0 -475.17,212.76 -475.17,475.17 0,262.44 212.73,475.17 475.17,475.17 262.43,0 475.17,-212.73 475.17,-475.17" />
      <path
         inkscape:connector-curvature="0"
         id="path44"
         style="fill:#a8dadf;fill-opacity:1;fill-rule:nonzero;stroke:none"
         d="m 3019.27,1989.45 c -0.02,0.05 -0.03,0.1 -0.05,0.15 0.02,-0.05 0.03,-0.09 0.05,-0.15 m -0.11,0.35 c -12.58,41.35 -19.67,85.09 -20.43,130.37 0.76,-45.27 7.86,-89.03 20.43,-130.37 m -20.44,130.98 c -0.03,1.72 -0.04,3.45 -0.05,5.17 0.01,-1.73 0.02,-3.45 0.05,-5.17 m 811.11,343.52 c -85.99,85.99 -204.79,139.17 -336,139.17 0.02,0 0.02,0 0.02,0 131.21,0 250,-53.18 335.99,-139.16 v 0" />
      <path
         inkscape:connector-curvature="0"
         id="path46"
         style="fill:#44c1cd;fill-opacity:1;fill-rule:nonzero;stroke:none"
         d="m 3137.84,1792.31 c -54.34,54.34 -95.57,121.76 -118.57,197.14 -0.02,0.06 -0.03,0.1 -0.05,0.15 -0.02,0.07 -0.04,0.13 -0.06,0.2 -12.57,41.34 -19.67,85.1 -20.43,130.37 0,0.21 -0.01,0.4 -0.01,0.61 -0.03,1.72 -0.04,3.44 -0.05,5.17 -0.01,0.78 -0.01,1.56 -0.01,2.35 v 0 c 0,262.44 212.77,475.17 475.19,475.17 131.19,0 249.99,-53.18 335.98,-139.17 l -44.44,-44.44 c -10.41,18.34 -23.25,34.56 -38.54,47.81 -23.45,20.32 -52.72,33.51 -87.28,36.32 -2.9,0.23 -5.78,0.35 -8.64,0.35 -0.03,0 -0.05,0 -0.08,0 -28.26,-0.03 -53.72,-10.89 -78.32,-21.7 -24.52,-10.82 -48.25,-21.6 -72.8,-23.02 -24.57,1.42 -48.31,12.19 -72.83,23.02 -24.6,10.81 -50.05,21.68 -78.31,21.7 -0.01,0 -0.03,0 -0.04,0 -2.87,0 -5.76,-0.11 -8.68,-0.36 -34.55,-2.8 -63.83,-15.99 -87.28,-36.31 -23.47,-20.33 -41.17,-47.68 -53.17,-78.88 l -0.04,-0.1 c -0.12,-0.36 -15.96,-44.37 -15.96,-105.71 -0.01,-50.66 10.85,-113.26 50.63,-172.39 -0.7,-7.45 -3.22,-36.98 -3.22,-76.78 0,-43.89 3.04,-100.26 15.04,-153.47 l -88.03,-88.03" />
      <path
         inkscape:connector-curvature="0"
         id="path158"
         style="fill:#f2ead9;fill-opacity:1;fill-rule:nonzero;stroke:none"
         d="m 3481.16,2014.82 c 1.74,0 3.47,-0.02 5.21,-0.02 3.14,0.02 6.33,0.02 9.47,-0.21 117.54,-7.79 102.35,-236.24 102.35,-236.24 5.27,-57.31 54.26,-35.14 54.26,-35.14 117.6,84.16 87.79,368.69 87.79,368.69 87.78,128.76 35.13,275.08 35.11,275.09 -23.53,61.17 -69.13,106.55 -136.18,112.01 -57.56,4.71 -104.91,-41.33 -159.44,-44.39 -54.55,3.06 -101.91,49.1 -159.45,44.39 -67.05,-5.46 -112.67,-50.84 -136.19,-112.01 0,-0.01 -52.67,-146.33 35.11,-275.09 0,0 -29.79,-284.53 87.78,-368.69 0,0 49.02,-22.17 54.26,35.14 0,0 -15.19,228.45 102.34,236.24 5.86,0.4 11.71,0.3 17.58,0.23" />
      <path
         inkscape:connector-curvature="0"
         id="path160"
         style="fill:#efc6cb;fill-opacity:1;fill-rule:nonzero;stroke:none"
         d="m 3409.99,1989.35 c -2.13,-1.01 -4.27,-2.13 -6.33,-3.33 -33.64,-19.87 -38.22,-54.74 -46.86,-89.65 -4.91,-19.66 -21.77,-89.93 -54.39,-57.99 -19.03,18.65 -24,49.23 -27.83,74.45 -4.16,27.52 -7.63,55.54 -8.75,83.34 -2.35,57.78 6.5,118.64 51.24,159.13 -10.73,7.36 -23.13,12.16 -33.21,20.38 -11.37,9.23 -19.11,21.38 -24.53,34.93 -12.75,31.77 -21.39,65.86 -20.08,100.31 1.91,50.53 18.5,105.65 71.85,122.35 52.01,16.29 100.36,-4.41 149.21,-20.75 31.53,-10.55 66.61,-19.92 100.07,-14.09 23.32,4.07 48.69,14.7 50.86,40.28 -22.14,-11.57 -51.45,-10.17 -75.02,-6 -19.24,3.41 -41.03,9.27 -56.85,21.94 -54.41,3.25 -101.67,49.03 -159.09,44.35 -67.05,-5.46 -112.67,-50.84 -136.19,-112.01 0,-0.01 -52.67,-146.33 35.11,-275.09 0,0 -29.79,-284.53 87.78,-368.69 0,0 49.02,-22.17 54.26,35.14 0,0 -9.96,149.94 48.75,211" />
      <path
         inkscape:connector-curvature="0"
         id="path162"
         style="fill:#efc6cb;fill-opacity:1;fill-rule:nonzero;stroke:none"
         d="m 3787.5,2234.43 c -1.38,-3.38 -2.91,-6.71 -4.67,-9.97 -13.28,-24.63 -33.36,-43.95 -56.89,-58.85 -16.58,-10.46 -34.04,-19.33 -51.62,-27.99 -4.04,-1.99 -8.09,-3.95 -12.11,-5.96 -3.93,-1.94 0.08,-3.3 2.87,-7.48 5.3,-7.94 10.3,-16.15 14.27,-24.84 15.19,-33.18 20.82,-69.02 22.61,-105.23 1.91,-38.73 5.26,-79.7 -2.56,-117.95 -3.72,-18.13 -9.37,-35.42 -17.75,-51.92 -5.02,-9.86 -11.05,-21.52 -20.86,-27.54 -8.17,-5.03 -20.71,-8.59 -28.94,-1.39 -8.57,7.49 -9.27,18.76 -10.65,29.38 -3.2,24.91 -7.96,50.32 -13.63,74.75 -5.64,24.3 -12.94,50.99 -29.75,70.19 -8.27,9.51 -17.85,15.85 -28.3,19.63 58.61,-61.13 48.67,-210.91 48.67,-210.91 5.27,-57.31 54.26,-35.14 54.26,-35.14 117.6,84.16 87.79,368.69 87.79,368.69 27.83,40.84 41.52,83.4 47.26,122.53" />
      <path
         inkscape:connector-curvature="0"
         id="path164"
         style="fill:#811051;fill-opacity:1;fill-rule:nonzero;stroke:none"
         d="m 3481.16,2014.82 v -5 c 1.7,0 3.43,-0.02 5.21,-0.02 h 0.03 l 2.08,0.01 c 2.4,0 4.73,-0.04 6.98,-0.21 h 0.05 c 22.03,-1.5 38.74,-10.96 52.12,-25.62 20.04,-21.97 31.84,-56.04 38.33,-90.21 6.52,-34.15 7.87,-68.3 7.87,-90.41 0,-7.62 -0.16,-13.81 -0.32,-18.09 -0.15,-4.28 -0.31,-6.59 -0.31,-6.59 l 0.01,-0.79 c 1.54,-16.93 6.88,-28.16 14.41,-35.03 7.52,-6.87 16.7,-8.88 24.55,-8.86 12.22,0.03 21.99,4.53 22.34,4.65 l 0.85,0.49 c 40.58,29.13 63.59,80.26 76.8,135.14 13.17,54.93 16.44,113.92 16.45,159.48 0,46.19 -3.39,78.54 -3.4,78.66 l -4.97,-0.52 4.13,-2.82 c 40.61,59.57 51.66,122.82 51.65,173.91 -0.01,61.33 -15.85,105.35 -15.97,105.7 l -0.03,0.1 c -12.01,31.2 -29.7,58.55 -53.17,78.88 -23.45,20.32 -52.72,33.51 -87.28,36.32 -2.93,0.24 -5.84,0.35 -8.72,0.35 -28.26,-0.03 -53.72,-10.89 -78.32,-21.7 -24.62,-10.87 -48.43,-21.68 -73.08,-23.04 l 0.28,-4.99 0.28,4.99 c -24.67,1.36 -48.49,12.17 -73.11,23.04 -24.6,10.81 -50.05,21.68 -78.31,21.7 -2.88,0 -5.79,-0.11 -8.72,-0.36 -34.55,-2.8 -63.83,-15.99 -87.28,-36.31 -23.47,-20.33 -41.17,-47.68 -53.17,-78.88 l -0.04,-0.1 c -0.12,-0.36 -15.96,-44.37 -15.96,-105.71 -0.01,-51.09 11.04,-114.33 51.65,-173.9 l 4.13,2.82 -4.97,0.52 c -0.02,-0.12 -3.4,-32.45 -3.4,-78.61 0,-45.55 3.28,-104.56 16.45,-159.5 13.2,-54.89 36.21,-106.03 76.79,-135.17 l 0.85,-0.48 c 0.35,-0.13 10.12,-4.63 22.34,-4.67 7.85,-0.01 17.03,2 24.55,8.87 7.53,6.87 12.87,18.1 14.4,35.03 l 0.01,0.79 c 0,0.01 -0.15,2.31 -0.31,6.59 -0.16,4.27 -0.32,10.46 -0.32,18.08 -0.01,29.47 2.42,80.39 16.24,124.11 6.89,21.86 16.61,41.86 29.95,56.52 13.39,14.66 30.1,24.12 52.13,25.62 3.25,0.22 6.53,0.29 9.86,0.29 2.42,0 4.86,-0.03 7.32,-0.07 h 0.07 v 5 l 0.07,5 c -2.47,0.03 -4.96,0.07 -7.46,0.07 -3.46,0 -6.97,-0.07 -10.53,-0.31 -24.66,-1.6 -44.17,-12.65 -58.86,-28.88 -22.06,-24.36 -34.01,-59.97 -40.74,-95.06 -6.7,-35.1 -8.04,-69.77 -8.05,-92.29 0,-15.51 0.65,-25.25 0.66,-25.34 l 4.99,0.34 -4.99,0.45 c -1.42,-15.37 -6,-23.82 -11.18,-28.55 -5.19,-4.73 -11.52,-6.24 -17.81,-6.26 -4.84,0 -9.49,0.95 -12.88,1.92 -1.69,0.48 -3.07,0.97 -4,1.32 l -1.05,0.41 -0.29,0.13 -2.06,-4.56 2.91,4.07 c -37.45,26.72 -60.02,75.57 -72.89,129.36 -12.89,53.74 -16.18,112.11 -16.18,157.17 0,22.84 0.84,42.26 1.68,55.96 0.42,6.85 0.84,12.27 1.15,15.97 0.32,3.69 0.52,5.64 0.52,5.64 0.12,1.17 -0.18,2.37 -0.84,3.34 -39.2,57.49 -49.91,118.56 -49.92,168.26 0,29.81 3.87,55.47 7.73,73.65 1.93,9.08 3.86,16.29 5.29,21.21 0.73,2.46 1.32,4.35 1.73,5.61 l 0.48,1.42 0.15,0.43 -4.7,1.69 4.66,-1.79 c 11.52,29.96 28.4,55.88 50.38,74.9 22,19.03 49.07,31.25 81.56,33.92 2.65,0.22 5.28,0.32 7.9,0.32 25.59,0.03 49.75,-10.02 74.28,-20.85 24.52,-10.76 49.34,-22.31 76.58,-23.87 h 0.56 c 27.22,1.56 52.04,13.11 76.55,23.87 24.53,10.83 48.69,20.88 74.29,20.85 2.62,0 5.25,-0.1 7.91,-0.32 32.49,-2.67 59.55,-14.89 81.55,-33.92 21.98,-19.02 38.85,-44.94 50.37,-74.9 l 4.67,1.79 -4.7,-1.69 c 0,0 0.21,-0.59 0.62,-1.85 2.9,-8.82 14.76,-48.3 14.76,-100.46 -0.01,-49.7 -10.73,-110.77 -49.92,-168.27 -0.67,-0.97 -0.97,-2.17 -0.84,-3.34 0,0 0.2,-1.95 0.51,-5.65 0.94,-11.1 2.83,-37.7 2.83,-71.97 0.01,-45.06 -3.28,-103.42 -16.18,-157.15 -12.87,-53.78 -35.44,-102.61 -72.89,-129.33 l 2.91,-4.07 -2.06,4.56 -0.29,-0.12 c -1.58,-0.69 -9.46,-3.68 -17.93,-3.65 -6.29,0.01 -12.62,1.52 -17.81,6.25 -5.18,4.73 -9.76,13.18 -11.19,28.55 l -4.98,-0.45 4.99,-0.33 c 0.01,0.09 0.65,9.82 0.65,25.34 -0.02,30.03 -2.37,81.64 -16.7,127.11 -7.19,22.74 -17.37,44.01 -32.09,60.23 -14.69,16.23 -34.2,27.28 -58.87,28.88 l 0.05,-0.01 c -2.65,0.2 -5.24,0.24 -7.74,0.24 l -2.15,-0.01 h 0.04 c -1.7,0 -3.44,0.02 -5.21,0.02 v -5 l 0.07,5 -0.07,-5" />
      <path
         inkscape:connector-curvature="0"
         id="path166"
         style="fill:#811051;fill-opacity:1;fill-rule:nonzero;stroke:none"
         d="m 3444.64,2456.6 c 0.08,-0.03 19.54,-6.94 45.31,-13.87 25.79,-6.92 57.78,-13.9 83.53,-13.92 8.87,0 17.03,0.82 24.1,2.92 7.03,2.1 13.15,5.57 17.18,11.14 1.61,2.24 1.1,5.36 -1.13,6.98 -2.25,1.61 -5.37,1.11 -6.98,-1.13 -2.27,-3.17 -6.21,-5.69 -11.94,-7.4 -5.69,-1.71 -13,-2.52 -21.23,-2.51 -23.99,-0.03 -55.59,6.74 -80.94,13.58 -12.69,3.41 -23.85,6.83 -31.82,9.38 -3.99,1.28 -7.18,2.35 -9.37,3.09 -2.2,0.75 -3.36,1.16 -3.36,1.16 -2.61,0.93 -5.47,-0.43 -6.39,-3.04 -0.92,-2.6 0.44,-5.46 3.04,-6.38" />
      <path
         inkscape:connector-curvature="0"
         id="path168"
         style="fill:#811051;fill-opacity:1;fill-rule:nonzero;stroke:none"
         d="m 3552.11,2132.73 h -5 c -0.02,-10.15 -8.25,-18.4 -18.41,-18.42 h -97.96 c -10.15,0.02 -18.4,8.28 -18.42,18.42 v 71.77 c 0.02,10.17 8.26,18.39 18.42,18.41 h 97.96 c 10.17,-0.02 18.39,-8.24 18.41,-18.41 v -71.77 h 5 5 v 71.77 c 0,15.7 -12.71,28.41 -28.41,28.41 h -97.96 c -15.69,0 -28.41,-12.71 -28.42,-28.41 v -71.77 c 0.01,-15.68 12.73,-28.41 28.42,-28.41 h 97.96 c 15.71,0 28.4,12.74 28.41,28.41 h -5" />
      <path
         inkscape:connector-curvature="0"
         id="path170"
         style="fill:#96b7c5;fill-opacity:1;fill-rule:nonzero;stroke:none"
         d="m 3503.97,2234.52 v -32.6 h -48.5 v 32.6 h -40.6 v -32.6 -14.13 -14.12 h 129.68 v 14.12 14.13 32.6 h -40.58" />
      <path
         inkscape:connector-curvature="0"
         id="path172"
         style="fill:#759daf;fill-opacity:1;fill-rule:nonzero;stroke:none"
         d="m 3544.55,2173.67 h -129.68 v 60.85 h 19.71 v -22.72 -9.82 -9.83 h 90.28 v 9.83 9.82 22.72 h 19.69 v -6.44 -14.22 -11.94 -14.13 -14.12" />
      <path
         inkscape:connector-curvature="0"
         id="path174"
         style="fill:#96b7c5;fill-opacity:1;fill-rule:nonzero;stroke:none"
         d="m 3455.47,2102.72 v 32.6 h 48.5 v -32.6 h 40.58 v 32.6 14.13 14.12 h -129.68 v -14.12 -14.13 -32.6 h 40.6" />
      <path
         inkscape:connector-curvature="0"
         id="path176"
         style="fill:#759daf;fill-opacity:1;fill-rule:nonzero;stroke:none"
         d="m 3544.55,2102.72 h -19.69 v 42.36 h -90.28 v -9.83 -9.82 -22.71 h -19.71 v 32.6 14.13 14.12 h 129.68 v -14.12 -14.13 -32.6" />
      <path
         inkscape:connector-curvature="0"
         id="path178"
         style="fill:#a3b3bb;fill-opacity:1;fill-rule:nonzero;stroke:none"
         d="m 3110.11,2163.63 h 739.22 c 2.76,0 5,2.23 5,5 0,2.76 -2.24,5 -5,5 h -739.22 c -2.77,0 -5,-2.24 -5,-5 0,-2.77 2.23,-5 5,-5" />
    </g>
  </g>
</svg>
